<?xml version="1.0" encoding="utf-8"?>
<!-- Generator: Adobe Illustrator 16.0.0, SVG Export Plug-In . SVG Version: 6.00 Build 0)  -->
<!DOCTYPE svg PUBLIC "-//W3C//DTD SVG 1.1//EN" "http://www.w3.org/Graphics/SVG/1.1/DTD/svg11.dtd">
<svg version="1.1" id="图层_1" xmlns="http://www.w3.org/2000/svg" xmlns:xlink="http://www.w3.org/1999/xlink" x="0px" y="0px"
	 width="50px" height="50px" viewBox="0 0 50 50" enable-background="new 0 0 50 50" xml:space="preserve">
<g>
	<g>
		<path fill="#666666" d="M46.215,12.033l-6.166-6.276c-0.605-0.612-1.576-0.612-2.184,0c-0.603,0.617-0.603,1.606,0,2.223
			l3.537,3.592H30.219c-0.854,0-1.541,0.702-1.541,1.569c0,0.869,0.688,1.569,1.541,1.569h11.184l-3.537,3.594
			c-0.603,0.617-0.603,1.604,0,2.222c0.303,0.304,0.697,0.456,1.088,0.456c0.398,0,0.793-0.151,1.096-0.456l6.166-6.276
			C46.816,13.638,46.816,12.645,46.215,12.033z M35.314,33.288c-0.338-0.054-0.66-0.081-0.961-0.081
			c-1.379,0-2.199,0.567-3.068,1.172c-0.673,0.47-1.435,1.004-2.404,1.216c-1.032,0.232-2.043,0.273-2.908,0.115l-0.116-0.025
			c-5.946-1.186-11.618-9.473-10.648-15.559c0.2-1.239,0.664-2.103,1.136-2.852c0.527-0.843,1.274-1.382,1.934-1.855l0.02-0.015
			c1.073-0.775,2-1.445,2.397-3.417c0.57-3.558-3.809-9.032-4.691-10.094c-1.116-1.338-2.243-1.955-3.457-1.888
			c-1.38,0.073-3.665,1.115-6.717,5.656c-1.039,1.538-1.743,3.438-2.095,5.643c-2.788,17.418,9.243,34.997,26.272,38.388
			l0.283,0.052c0.922,0.171,1.84,0.258,2.729,0.258c1.029,0,2.012-0.116,2.925-0.348c5.243-1.329,6.995-3.148,7.542-4.443
			c0.479-1.129,0.301-2.422-0.543-3.955C41.999,39.555,38.654,33.952,35.314,33.288z M40.893,44.077
			c-0.007,0.016-0.68,1.532-5.641,2.793c-1.311,0.332-2.843,0.351-4.469,0.058l-0.242-0.048C15.24,43.835,4.011,27.427,6.514,11.768
			c0.28-1.776,0.833-3.286,1.644-4.491c2.915-4.336,4.517-4.406,4.533-4.406c0.218,0,0.511,0.106,1.165,0.882
			c1.846,2.21,4.328,6.069,4.066,7.72c-0.163,0.801-0.327,0.919-1.235,1.575l-0.023,0.017c-0.788,0.569-1.867,1.351-2.697,2.659
			c-0.605,0.965-1.263,2.188-1.543,3.942c-1.203,7.515,5.542,17.372,12.889,18.833l0.151,0.03c0.538,0.098,1.092,0.148,1.649,0.148
			c1.021,0,1.84-0.162,2.365-0.285c1.505-0.332,2.596-1.088,3.395-1.642c0.709-0.497,0.975-0.683,1.453-0.683
			c0.131,0,0.29,0.016,0.5,0.046c1.584,0.315,4.26,4.021,5.654,6.55C41,43.605,40.943,43.966,40.893,44.077z"/>
	</g>
</g>
</svg>
