<?xml version="1.0" encoding="utf-8"?>
<!-- Generator: Adobe Illustrator 16.0.0, SVG Export Plug-In . SVG Version: 6.00 Build 0)  -->
<!DOCTYPE svg PUBLIC "-//W3C//DTD SVG 1.1//EN" "http://www.w3.org/Graphics/SVG/1.1/DTD/svg11.dtd">
<svg version="1.1" id="图层_1" xmlns="http://www.w3.org/2000/svg" xmlns:xlink="http://www.w3.org/1999/xlink" x="0px" y="0px"
	 width="50px" height="50px" viewBox="0 0 50 50" enable-background="new 0 0 50 50" xml:space="preserve">
<g>
	<g>
		<g>
			<path fill="#666666" d="M16.431,0H4.997C2.238,0,0,2.238,0,4.999v11.43c0,2.761,2.238,4.999,4.997,4.999h11.43
				c2.763,0,5.001-2.238,5.005-4.993V4.999C21.432,2.238,19.193,0,16.431,0z M45.003,0H33.568c-2.767,0-5,2.238-5,4.999v11.43
				c0,2.761,2.233,4.999,5,4.999h11.427c2.759,0,4.997-2.238,5.005-4.993V4.999C50,2.238,47.762,0,45.003,0z M16.431,28.572H4.997
				C2.238,28.572,0,30.811,0,33.568v11.431C0,47.762,2.238,50,4.997,50h11.43c2.763,0,5.001-2.238,5.005-4.997V33.568
				C21.432,30.811,19.193,28.572,16.431,28.572z M45.003,28.572H33.568c-2.767,0-5,2.238-5,4.996v11.431
				c0,2.763,2.233,5.001,5,5.001h11.427c2.759,0,4.997-2.238,5.005-4.997V33.568C50,30.811,47.762,28.572,45.003,28.572z"/>
		</g>
	</g>
</g>
</svg>
