<?xml version="1.0" encoding="utf-8"?>
<!-- Generator: Adobe Illustrator 17.0.0, SVG Export Plug-In . SVG Version: 6.00 Build 0)  -->
<!DOCTYPE svg PUBLIC "-//W3C//DTD SVG 1.1//EN" "http://www.w3.org/Graphics/SVG/1.1/DTD/svg11.dtd">
<svg version="1.1" id="图层_1" xmlns="http://www.w3.org/2000/svg" xmlns:xlink="http://www.w3.org/1999/xlink" x="0px" y="0px"
	 width="50px" height="50px" viewBox="0 0 50 50" enable-background="new 0 0 50 50" xml:space="preserve">
<g>
	<path fill="#666666" d="M-417.162-275.675h3.263v16.657c0,3.278,2.314,4.441,4.296,4.441c0.127,0,0.229-0.005,0.274-0.009h8.987
		v-17.68c0-0.3,0.236-0.517,0.273-0.537l9.256-0.011c0.095,0.058,0.264,0.428,0.269,0.59c0.016,0.508,0.002,12.518,0,16.187
		l-0.002,1.451h8.925c1.578,0,2.914-0.737,3.864-2.135c0.619-0.908,0.857-1.789,0.899-1.956l0.033-0.126l0.063-16.981h3.151
		c1.116,0,2.033-0.493,2.579-1.386c0.397-0.652,0.59-1.5,0.59-2.595v-0.594l-0.426-0.424c-2.188-2.181-23.3-23.208-23.384-23.291
		c-0.342-0.334-0.842-0.504-1.485-0.504c-0.583,0-1.05,0.168-1.392,0.505l-23.313,23.611v0.587c0,1.082,0.365,2.125,1.029,2.935
		C-418.766-276.146-417.924-275.675-417.162-275.675L-417.162-275.675z M-373.555-278.686c-0.013,0.001-0.033,0.001-0.058,0.001
		h-6.097l-0.06,19.459c-0.155,0.466-0.681,1.74-1.853,1.74h-5.968c0.002-2.211,0.016-14.236-0.004-14.824
		c-0.014-0.497-0.191-1.276-0.648-1.971c-0.604-0.919-1.498-1.423-2.517-1.423h-9.31c-1.718,0-3.225,1.607-3.225,3.436v14.782
		l-6.109-0.005l-0.2,0.014c-1.183,0-1.343-0.779-1.343-1.54v-19.557h-5.986c-0.141-0.114-0.376-0.376-0.489-0.784l21.735-22.014
		l22.26,22.171C-373.462-278.915-373.515-278.763-373.555-278.686L-373.555-278.686z"/>
</g>
<g>
	<g>
		<g>
			<path fill="#666666" d="M-301.189-268.014c-3.061-1.726-2.907-0.396-9.152,3.431c-2.918,1.773-6.876-1.15-6.876-1.15
				s-3.14-1.979-5.379-4.222c-2.227-2.233-4.229-5.369-4.229-5.369s-2.924-3.962-1.138-6.882c3.828-6.238,5.145-6.09,3.432-9.17
				c-5.986-10.677-9.962-10.239-10.938-9.966c-3.853,1.066-6.963,8.062-5.059,15.699c1.911,7.672,5.967,15.354,12.102,21.531
				c6.17,6.133,13.856,10.182,21.53,12.092c7.63,1.906,14.629-1.211,15.7-5.057C-290.936-258.054-290.492-262.029-301.189-268.014z
				 M-313.847-295.205h20.053c1.026,0,1.855-0.834,1.855-1.853c0-1.027-0.829-1.855-1.855-1.855h-20.053
				c-1.027,0-1.854,0.828-1.854,1.855C-315.701-296.039-314.873-295.205-313.847-295.205z M-313.847-287.517h20.053
				c1.026,0,1.855-0.836,1.855-1.855c0-1.026-0.829-1.855-1.855-1.855h-20.053c-1.027,0-1.854,0.829-1.854,1.855
				C-315.701-288.353-314.873-287.517-313.847-287.517z M-313.847-279.837h20.053c1.026,0,1.855-0.829,1.855-1.855
				c0-1.021-0.829-1.855-1.855-1.855h-20.053c-1.027,0-1.854,0.835-1.854,1.855C-315.701-280.667-314.873-279.837-313.847-279.837z"
				/>
		</g>
	</g>
</g>
<g>
	<g>
		<g>
			<path fill="#666666" d="M-203.24-286.101c-0.339-1.691-1.178-3.301-2.524-4.614c-1.8-1.753-4.153-2.627-6.511-2.627
				l-15.508,0.039c-0.58-0.659-1.264-1.253-2.052-1.738c-1.536-0.952-3.247-1.401-4.941-1.401h-8.776
				c-2.358,0-4.715,0.874-6.515,2.627c-1.694,1.65-2.58,3.784-2.677,5.945h-0.042v23.195c0,2.183,0.814,4.236,2.29,5.786
				c1.498,1.577,3.503,2.446,5.638,2.446h34.147c2.135,0,4.141-0.869,5.638-2.446c1.478-1.55,2.287-3.604,2.287-5.786v-19.712
				C-202.786-284.998-202.95-285.583-203.24-286.101z M-212.242-290.813c1.686,0,3.368,0.625,4.652,1.875
				c0.331,0.322,0.616,0.671,0.859,1.04h-18.084l-1.397-2.915H-212.242z M-248.243-292.039c1.283-1.255,2.965-1.88,4.652-1.88h8.834
				c1.212,0,2.438,0.322,3.533,1.001c1.099,0.684,1.917,1.623,2.428,2.693l-0.629-1.316l1.749,3.643l-22.459,0.024
				C-250.047-289.392-249.43-290.88-248.243-292.039z M-205.4-264.674c0,1.535-0.563,2.979-1.59,4.058
				c-0.998,1.05-2.319,1.631-3.721,1.631h-34.147c-1.401,0-2.722-0.581-3.721-1.631c-1.027-1.079-1.59-2.522-1.59-4.058v-20.645
				h43.976c0.479,0,0.793,0.513,0.793,0.933L-205.4-264.674L-205.4-264.674z M-222.138-274.726h-4.103v-3.997
				c0-0.83-0.692-1.504-1.543-1.504c-0.855,0-1.548,0.674-1.548,1.504v3.997h-4.103c-0.853,0-1.544,0.674-1.544,1.506
				c0,0.83,0.692,1.504,1.544,1.504h4.103v3.996c0,0.83,0.692,1.504,1.548,1.504c0.851,0,1.543-0.674,1.543-1.504v-3.996h4.103
				c0.856,0,1.544-0.674,1.544-1.504C-220.594-274.051-221.282-274.726-222.138-274.726z"/>
		</g>
	</g>
</g>
<g>
	<path fill="#666666" d="M-144.666-260.336c0.469,0.184,0.945,0.264,1.43,0.293l-1.668,2.378c-0.254,0.337-0.56,0.568-0.923,0.413
		c-0.364-0.138-0.468-0.444-0.411-0.941l0.343-2.923C-145.531-260.801-145.134-260.525-144.666-260.336L-144.666-260.336z
		 M-170.72-295.724c-1.696,0-3.288,0.687-4.488,1.919c-1.199,1.238-1.859,2.882-1.859,4.627v31.494c0,1.745,0.66,3.393,1.859,4.63
		c1.2,1.236,2.792,1.916,4.488,1.916h36.996c0.811,0,1.475-0.684,1.475-1.523c0-0.837-0.665-1.521-1.475-1.521h-36.318
		c-1.09,0-2.11-0.438-2.883-1.229c-0.769-0.792-1.191-1.85-1.191-2.973c0-35.851,0-14.521,0-30.09c0-1.125,0.426-2.18,1.195-2.973
		c0.769-0.793,1.789-1.232,2.879-1.232c9.873,0,19.739,0.005,29.611,0.005c0.811,0,1.476-0.687,1.476-1.525
		c0-0.837-0.665-1.523-1.476-1.523C-150.53-295.724-160.622-295.724-170.72-295.724L-170.72-295.724z M-167.204-281.892
		c-0.824,0-1.484-0.68-1.484-1.541c0-0.837,0.66-1.53,1.484-1.53h8.295c0.812,0,1.484,0.693,1.484,1.53
		c0,0.861-0.673,1.541-1.484,1.541H-167.204z M-167.204-264.968L-167.204-264.968h14.23c0.823,0,1.484,0.692,1.484,1.543
		c0,0.848-0.662,1.527-1.484,1.527h-14.23c-0.824,0-1.484-0.68-1.484-1.527C-168.688-264.275-168.023-264.968-167.204-264.968
		L-167.204-264.968z M-148.268-273.423L-148.268-273.423c0,0.851-0.661,1.53-1.483,1.53h-17.453c-0.824,0-1.484-0.68-1.484-1.53
		c0-0.848,0.66-1.543,1.484-1.543h17.453C-148.929-274.966-148.268-274.271-148.268-273.423L-148.268-273.423z M-134.911-296.238
		c0.807-2.154,3.164-3.224,5.249-2.392c2.098,0.835,3.126,3.267,2.32,5.415l-5.655,15.001l-7.569-3.029L-134.911-296.238z
		 M-135.4-283.376L-135.4-283.376c0.514,0.206,1.099-0.038,1.288-0.549l3.908-10.38c0.192-0.521-0.066-1.099-0.589-1.306
		c-0.514-0.206-1.095,0.038-1.295,0.549l-3.908,10.38C-136.19-284.169-135.922-283.592-135.4-283.376L-135.4-283.376z
		 M-143.766-261.203c-0.975-0.394-1.709-1.182-2.09-2.085c-0.351-0.817-0.401-1.689-0.125-2.418l5.199-13.768l6.796,2.724
		l-5.053,13.404c-0.363,0.97-1.07,1.689-1.926,2.073C-141.824-260.881-142.827-260.828-143.766-261.203L-143.766-261.203z"/>
</g>
<g>
	<path fill="#666666" d="M-62.286-297.525H-75.75c-3.14,0-5.937,1.477-7.692,3.758c-1.755-2.281-4.552-3.758-7.692-3.758h-13.459
		c-2.121,0-3.849,1.685-3.849,3.752v34.686c0,2.065,1.722,3.75,3.849,3.75h14.134c1.887,1.797,4.399,2.813,7.017,2.813
		c2.616,0,5.13-1.016,7.015-2.813h14.141c2.122,0,3.843-1.685,3.843-3.75v-34.686C-58.443-295.84-60.164-297.525-62.286-297.525
		L-62.286-297.525z M-101.425-284.289c-0.9,0-1.636-0.71-1.636-1.592c0-0.879,0.736-1.597,1.636-1.597h12.233
		c0.898,0,1.634,0.718,1.634,1.597c0,0.882-0.736,1.592-1.634,1.592H-101.425z M-101.425-274.499c-0.9,0-1.636-0.711-1.636-1.592
		c0-0.879,0.736-1.597,1.636-1.597h12.233c0.898,0,1.634,0.718,1.634,1.597c0,0.881-0.736,1.592-1.634,1.592H-101.425z
		 M-101.425-264.708c-0.9,0-1.636-0.713-1.636-1.592s0.736-1.597,1.636-1.597h12.233c0.898,0,1.634,0.718,1.634,1.597
		s-0.736,1.592-1.634,1.592H-101.425z M-62.286-259.087h-14.968c-0.562,0-1.097,0.239-1.463,0.654
		c-1.203,1.369-2.926,2.156-4.725,2.156c-1.793,0-3.517-0.787-4.72-2.156c-0.366-0.415-0.9-0.654-1.461-0.654h-14.969v-34.686
		h13.459c3.184,0,5.768,2.52,5.768,5.623v28.164c0,1.035,0.861,1.87,1.924,1.87s1.923-0.835,1.923-1.87v-28.164
		c0-3.104,2.59-5.623,5.769-5.623h13.463V-259.087z"/>
</g>
<g>
	<g>
		<g>
			<path fill="#666666" d="M-451.953-259.06l-0.069-0.015h-24.968c-1.717,0-3.115-1.355-3.115-3.021v-36.262
				c0-1.667,1.398-3.022,3.115-3.022h24.678c1.097-0.001,1.987-0.867,1.987-1.933c0-0.935-0.683-1.734-1.628-1.902l-0.069-0.013
				h-24.968c-3.902,0-7.081,3.081-7.081,6.87v36.262c0,3.787,3.178,6.868,7.081,6.868h24.678c1.094,0,1.987-0.867,1.987-1.932
				C-450.325-258.094-451.008-258.894-451.953-259.06z M-434.67-281.703l-7.474-7.276l-2.667-2.591
				c-0.376-0.365-0.873-0.564-1.404-0.564c-0.534,0-1.034,0.201-1.41,0.566c-0.715,0.692-0.787,1.79-0.167,2.557l7.006,6.827
				h-22.838c-1.097,0-1.987,0.867-1.987,1.932c0,1.067,0.89,1.934,1.987,1.934h22.838l-7.233,7.033l-0.055,0.106
				c-0.402,0.775-0.261,1.694,0.348,2.289c0.371,0.359,0.87,0.557,1.407,0.557c0.569,0,1.108-0.218,1.521-0.617l2.53-2.46
				l0.356-0.339l7.244-7.052c0.391-0.381,0.591-0.896,0.565-1.45C-434.079-280.81-434.28-281.323-434.67-281.703z"/>
		</g>
	</g>
</g>
<g>
	<g>
		<g>
			<path fill="#666666" d="M25.973-289.979l-35.671,0.014c-1.975,0.089-3.553,1.689-3.562,3.67l0.013,24.805
				c0.09,1.971,1.711,3.542,3.718,3.542c2.493,0,11.112,0.005,13.613,0c1.032,0,1.866-0.827,1.866-1.853
				c0-1.021-0.834-1.854-1.866-1.854l-11.074-0.004c-1.988-0.043-2.431-0.29-2.525-1.761l-0.015-20.652
				c-0.023-1.751,0.434-2.177,2.394-2.187l30.535-0.014c2.694,0.042,3.078,1.034,3.078,2.841c0.004,4.391-0.006,14.862,0.004,19.253
				c-0.048,2.129-0.357,2.481-2.294,2.527c-3.473,0.01-8.826,0.014-12.299,0.014c-0.98,0-1.239,0.122-1.965,0.833l-7.257,7.153
				c-1.829,1.971,0.758,4.353,2.639,2.621l6.998-6.899c5.372-0.005,8.858-0.02,14.226-0.02c1.914,0,3.474-1.436,3.686-3.28
				c-0.011-6.507-0.005-19.095-0.011-25.597C30.204-288.86,28.615-289.988,25.973-289.979z M36.726-293.041
				c0.029-1.686-1.545-2.968-3.66-2.968c-9.314,0-27.625-0.009-36.967,0c-1.032,0-1.866,0.829-1.866,1.854
				c0,1.02,0.834,1.854,1.866,1.854l34.346-0.019c1.381,0,2.642,0.491,2.552,2.242l0.015,22.89c0,2.438,3.73,2.438,3.73,0
				L36.726-293.041z M-4.683-274.981c-0.91,0-1.65,0.735-1.65,1.639c0,0.908,0.741,1.637,1.65,1.637h4.914
				c0.915,0,1.649-0.729,1.649-1.637c0-0.904-0.735-1.639-1.649-1.639H-4.683z M12.279-273.342c0-0.904-0.739-1.639-1.649-1.639
				H5.711c-0.909,0-1.649,0.735-1.649,1.639c0,0.908,0.74,1.637,1.649,1.637h4.919C11.54-271.706,12.279-272.436,12.279-273.342z
				 M21.026-271.706c0.91,0,1.649-0.729,1.649-1.637c0-0.904-0.74-1.639-1.649-1.639h-4.915c-0.915,0-1.649,0.735-1.649,1.639
				c0,0.908,0.734,1.637,1.649,1.637H21.026z"/>
		</g>
	</g>
</g>
<g>
	<path fill="#666666" d="M121.747-278.918c-3.957,5.575-8.375,0.287-9.373-1.311c-0.994-1.597-7.383-7.747-14.725-7.747
		c-8.707,0-13.811,6.36-14.813,7.981c-1.001,1.621-5.443,6.987-9.424,1.331c-1.479-1.783-4.195-17.256,24.232-17.294
		C125.921-295.92,123.218-280.674,121.747-278.918L121.747-278.918z M97.649-293.297c-25.855,0-22.658,11.937-21.541,13.303
		c1.918,2.348,3.621-0.358,5.385-2.66c1.285-1.68,7.123-8.041,16.156-8.041l0,0c7.605,0,14.889,6.406,16.066,7.845
		c1.561,1.909,3.912,4.923,5.354,2.622C120.108-281.621,123.271-293.297,97.649-293.297L97.649-293.297z M97.649-285.316
		c11.699,0,20.193,17.807,20.193,26.605c0,7.865-2.615,7.982-20.193,7.982s-20.193-0.119-20.193-7.982
		C77.454-267.293,85.931-285.316,97.649-285.316L97.649-285.316z M97.649-253.389c15.234,0,17.5-0.099,17.5-6.705
		c0-5.994-7.359-22.561-17.5-22.561c-10.156,0-17.502,16.677-17.502,22.561C80.147-253.488,82.413-253.389,97.649-253.389
		L97.649-253.389z M97.649-277.334c3.717,0,6.73,2.978,6.73,6.651c0,3.672-3.014,6.651-6.73,6.651c-3.719,0-6.73-2.979-6.73-6.651
		C90.917-274.356,93.931-277.334,97.649-277.334L97.649-277.334z M97.649-266.691c2.23,0,4.037-1.787,4.037-3.991
		c0-2.205-1.807-3.991-4.037-3.991c-2.229,0-4.039,1.787-4.039,3.991C93.61-268.479,95.418-266.691,97.649-266.691L97.649-266.691z"
		/>
</g>
<g>
	<path fill="#666666" d="M145.573-291.464H179.7c2.184,0,4.171,0.887,5.605,2.317c1.438,1.429,2.33,3.405,2.33,5.578v20.695
		c0,2.176-0.895,4.147-2.33,5.578s-3.424,2.317-5.605,2.317h-34.127c-2.184,0-4.17-0.887-5.606-2.317
		c-1.437-1.431-2.329-3.402-2.329-5.578v-20.695c0-2.173,0.893-4.149,2.329-5.578C141.403-290.578,143.392-291.464,145.573-291.464
		L145.573-291.464z M172.53-273.347l11.963,11.631c0.094-0.372,0.141-0.76,0.141-1.157v-20.695c0-0.546-0.09-1.071-0.257-1.563
		L172.53-273.347z M182.875-259.127l-12.459-12.112l-0.626,0.619v-0.004c-0.026,0.026-0.053,0.05-0.081,0.073
		c-2.399,2.07-4.729,3.129-7.093,3.141c-2.355,0.013-4.621-1.012-6.898-3.108c-0.035-0.025-0.064-0.055-0.096-0.084l-0.741-0.705
		l-12.601,12.079c0.875,0.785,2.033,1.263,3.293,1.263H179.7C180.905-257.965,182.019-258.401,182.875-259.127L182.875-259.127z
		 M140.739-261.892l11.975-11.482l-11.932-11.364c-0.09,0.375-0.143,0.768-0.143,1.169v20.695
		C140.642-262.538,140.676-262.208,140.739-261.892L140.739-261.892z M142.403-287.32l15.295,14.571
		c0.019,0.017,0.035,0.034,0.053,0.055c1.693,1.559,3.29,2.319,4.854,2.31c1.577-0.013,3.248-0.802,5.066-2.348l0,0l14.896-14.823
		c-0.813-0.58-1.804-0.922-2.867-0.922h-34.127C144.368-288.478,143.262-288.042,142.403-287.32L142.403-287.32z"/>
</g>
<g>
	<g>
		<g>
			<path fill="#666666" d="M-249.138-225.126h-11.434c-2.759,0-4.997,2.238-4.997,4.999v11.43c0,2.761,2.238,4.999,4.997,4.999
				h11.43c2.763,0,5.001-2.238,5.005-4.993v-11.436C-244.137-222.888-246.375-225.126-249.138-225.126z M-220.565-225.126h-11.434
				c-2.767,0-5.001,2.238-5.001,4.999v11.43c0,2.761,2.234,4.999,5.001,4.999h11.426c2.759,0,4.997-2.238,5.005-4.993v-11.436
				C-215.568-222.888-217.807-225.126-220.565-225.126z M-249.138-196.553h-11.434c-2.759,0-4.997,2.238-4.997,4.997v11.43
				c0,2.763,2.238,5.001,4.997,5.001h11.43c2.763,0,5.001-2.238,5.005-4.997v-11.435
				C-244.137-194.316-246.375-196.553-249.138-196.553z M-220.565-196.553h-11.434c-2.767,0-5.001,2.238-5.001,4.997v11.43
				c0,2.763,2.234,5.001,5.001,5.001h11.426c2.759,0,4.997-2.238,5.005-4.997v-11.435
				C-215.568-194.316-217.807-196.553-220.565-196.553z"/>
		</g>
	</g>
</g>
<g>
	<path fill="#666666" d="M-153.231-217.456c-0.767-0.383-1.668-0.255-2.314,0.316l-12.503,11.046l-9.965-0.041h-0.008
		c-0.574,0-1.127,0.24-1.532,0.668c-0.413,0.433-0.643,1.022-0.643,1.635l-0.045,18.46c0,0.616,0.229,1.202,0.635,1.634
		c0.405,0.439,0.962,0.681,1.54,0.681h10.081l12.439,11.005c0.398,0.353,0.895,0.533,1.391,0.533c0.315,0,0.631-0.075,0.924-0.218
		c0.762-0.38,1.25-1.194,1.25-2.089v-41.541C-151.981-216.259-152.47-217.071-153.231-217.456L-153.231-217.456L-153.231-217.456
		L-153.231-217.456z M-144.804-205.917c-1.074-0.541-2.347-0.049-2.869,1.082c-0.519,1.138-0.067,2.513,0.991,3.079
		c0.144,0.075,3.396,1.871,3.396,6.99c0,5.465-3.042,7.275-3.144,7.336c-1.074,0.57-1.51,1.957-0.973,3.095
		c0.383,0.812,1.149,1.277,1.945,1.277c0.331,0,0.661-0.075,0.97-0.241c0.229-0.12,5.551-3.046,5.551-11.467
		C-138.936-202.893-144.566-205.795-144.804-205.917L-144.804-205.917L-144.804-205.917L-144.804-205.917z M-138.035-212.691
		c-1.003-0.684-2.332-0.376-2.989,0.688c-0.65,1.063-0.364,2.489,0.631,3.188c0.236,0.165,5.807,4.191,5.807,14.22
		c0,10.052-5.345,14.081-5.559,14.235c-0.999,0.706-1.266,2.138-0.602,3.2c0.421,0.665,1.108,1.029,1.811,1.029
		c0.413,0,0.834-0.128,1.206-0.391c0.304-0.218,7.489-5.446,7.489-18.074C-130.241-207.253-137.72-212.479-138.035-212.691
		L-138.035-212.691L-138.035-212.691L-138.035-212.691z"/>
</g>
<path fill="#666666" d="M-417.459-221.519c0.744,0,1.493,0.284,2.091,0.854l23.281,22.154c0.594,0.569,0.895,1.281,0.895,1.993
	c0,0.708-0.301,1.416-0.895,1.985l-23.281,22.162c-1.196,1.135-2.985,1.135-4.178,0c-1.196-1.139-1.196-2.844,0-3.979l21.039-20.169
	l-21.039-20.03c-1.196-1.135-1.196-2.84,0-3.979C-418.953-221.233-418.203-221.519-417.459-221.519L-417.459-221.519z"/>
<g>
	<path fill="#666666" d="M-467.197-175.126l-20.588-24.411l20.588-25.589V-175.126z"/>
</g>
<g>
	<path fill="#666666" d="M-303.82-186.902h-50v-19.23h50l-8.283,9.787L-303.82-186.902z"/>
</g>
<g>
	<g>
		<g>
			<path fill="#666666" d="M-60.359-202.841h-11.249l3.557-3.591c0.605-0.618,0.605-1.606,0-2.224c-0.61-0.61-1.589-0.61-2.199,0
				l-6.201,6.277c-0.605,0.613-0.605,1.606,0,2.216l6.201,6.276c0.308,0.303,0.705,0.454,1.104,0.454
				c0.393,0,0.791-0.151,1.096-0.454c0.605-0.617,0.605-1.605,0-2.224l-3.557-3.591h11.249c0.857,0,1.551-0.701,1.551-1.57
				C-58.808-202.14-59.501-202.841-60.359-202.841z M-69.14-181.126c-0.342-0.054-0.666-0.083-0.969-0.083
				c-1.387,0-2.212,0.571-3.086,1.172c-0.674,0.472-1.44,1.006-2.419,1.219c-1.038,0.231-2.054,0.271-2.923,0.114l-0.117-0.026
				c-5.98-1.185-11.688-9.473-10.712-15.557c0.2-1.239,0.669-2.104,1.143-2.851c0.532-0.845,1.281-1.382,1.943-1.855l0.021-0.015
				c1.079-0.776,2.012-1.446,2.409-3.418c0.574-3.557-3.827-9.03-4.716-10.092c-1.123-1.338-2.256-1.956-3.477-1.89
				c-1.39,0.076-3.688,1.116-6.758,5.656c-1.045,1.538-1.753,3.438-2.109,5.642c-2.803,17.416,9.302,34.996,26.43,38.387
				l0.286,0.052c0.925,0.171,1.85,0.259,2.743,0.259c1.035,0,2.024-0.117,2.942-0.35c5.272-1.328,7.035-3.149,7.587-4.443
				c0.483-1.128,0.303-2.422-0.547-3.955C-62.419-174.858-65.781-180.462-69.14-181.126z M-63.53-170.338
				c-0.007,0.015-0.681,1.533-5.671,2.796c-1.323,0.329-2.861,0.349-4.5,0.056l-0.241-0.049
				c-15.395-3.044-26.688-19.452-24.169-35.108c0.281-1.777,0.838-3.289,1.653-4.492c2.932-4.335,4.543-4.406,4.558-4.406
				c0.22,0,0.515,0.107,1.172,0.881c1.86,2.212,4.355,6.069,4.092,7.722c-0.164,0.801-0.327,0.918-1.245,1.575l-0.02,0.015
				c-0.794,0.571-1.88,1.352-2.713,2.661c-0.61,0.965-1.271,2.188-1.553,3.94c-1.213,7.517,5.574,17.372,12.966,18.832l0.151,0.032
				c0.54,0.1,1.099,0.148,1.658,0.148c1.027,0,1.853-0.163,2.38-0.283c1.514-0.334,2.612-1.091,3.415-1.646
				c0.713-0.495,0.979-0.681,1.46-0.681c0.132,0,0.293,0.015,0.503,0.046c1.595,0.315,4.285,4.021,5.688,6.55
				C-63.422-170.81-63.478-170.45-63.53-170.338z"/>
		</g>
	</g>
</g>
<path fill="#666666" d="M115.262-211.112c-4.722-4.719-11.001-7.319-17.681-7.319s-12.958,2.6-17.68,7.32
	c-4.724,4.722-7.324,11.001-7.324,17.68c-0.001,6.68,2.598,12.957,7.321,17.681c4.72,4.72,10.999,7.32,17.678,7.32
	c6.68,0,12.961-2.604,17.686-7.325C125.008-185.501,125.01-201.361,115.262-211.112L115.262-211.112L115.262-211.112
	L115.262-211.112z M112.957-178.06c-4.106,4.109-9.57,6.372-15.381,6.372c-5.809,0-11.269-2.26-15.375-6.367
	c-4.106-4.104-6.367-9.565-6.365-15.376c0-5.81,2.262-11.271,6.367-15.376c4.108-4.105,9.568-6.366,15.378-6.366
	c5.808,0,11.27,2.261,15.376,6.366C121.436-200.33,121.436-186.535,112.957-178.06L112.957-178.06L112.957-178.06L112.957-178.06z
	 M108.384-187.303l-8.643-5v-13.628c0-1.15-0.935-2.084-2.082-2.084c-1.151,0-2.085,0.934-2.085,2.084v13.843
	c-0.028,1.572,0.887,2.171,2,2.861l9.118,5.53c0.996,0.573,2.075,0.231,2.651-0.762C109.92-185.458,109.383-186.73,108.384-187.303
	L108.384-187.303L108.384-187.303L108.384-187.303z"/>
<g>
	<g>
		<path fill="#666666" d="M155.01-209.692h2.373v2.289c0,0.477,0.402,0.863,0.896,0.863c0.493,0,0.896-0.386,0.896-0.863v-2.289
			h2.378c0.494,0,0.894-0.386,0.894-0.862c0-0.477-0.399-0.864-0.894-0.864h-2.378v-2.291c0-0.477-0.399-0.863-0.894-0.863
			c-0.496,0-0.898,0.386-0.898,0.863v2.291h-2.373c-0.496,0-0.896,0.385-0.896,0.861C154.111-210.08,154.514-209.692,155.01-209.692
			z M145.041-200.336c0.071,7.835,5.714,13.827,13.761,13.419c6.635-0.339,12.913-5.147,12.873-13.419
			c0-1.238-0.172-2.434-0.465-3.581c0.551-0.701,0.775-1.612,0.597-2.532l-1.7-8.681c-0.361-1.851-2.177-3.302-4.136-3.302h-15.226
			c-1.956,0-3.774,1.451-4.138,3.302l-1.695,8.681c-0.182,0.919,0.044,1.831,0.594,2.532
			C145.215-202.77,145.041-201.574,145.041-200.336z M147.932-202.704c0.076,0.004,0.145,0.024,0.221,0.024
			c6.807,0,13.607,0,20.409,0c0.077,0,0.149-0.02,0.224-0.024C172.388-184.568,144.331-184.59,147.932-202.704z M147.35-206.006
			l1.697-8.681c0.143-0.721,0.934-1.352,1.709-1.352c5.11,0.047,10.091,0.047,15.203,0c0.775,0,1.568,0.63,1.709,1.352l1.697,8.681
			c0.052,0.27,0,0.508-0.138,0.675c-0.144,0.168-0.382,0.259-0.666,0.259c-6.802,0-13.603,0-20.409,0
			c-0.283,0-0.518-0.09-0.662-0.259C147.349-205.498,147.3-205.736,147.35-206.006z M177.305-182.948
			c-0.586-3.728-3.43-6.91-7.307-8.134c-2.663,3.449-6.839,5.399-11.156,5.618c-5.238,0.27-9.546-1.95-12.188-5.599
			c-4.33,1.394-7.355,5.23-7.355,9.539v2.979c0,5.902,5.188,10.114,11.131,10.114c5.35,0,10.701,0,16.053,0
			c5.5,0,10.063-3.775,10.822-8.668C177.522-179.027,177.52-180.977,177.305-182.948z"/>
	</g>
</g>
<g>
	<g>
		<path fill="#666666" d="M-462.785-147.104c-13.809,0-25,11.192-25,25c0,13.809,11.191,25,25,25c13.807,0,25-11.194,25-25
			C-437.785-135.911-448.979-147.104-462.785-147.104z M-447.287-106.605c-2.014,2.012-4.357,3.594-6.968,4.697
			c-2.7,1.143-5.571,1.721-8.53,1.721c-2.961,0-5.83-0.579-8.53-1.721c-2.61-1.104-4.954-2.686-6.968-4.697
			c-2.014-2.014-3.594-4.357-4.697-6.968c-1.143-2.7-1.721-5.571-1.721-8.53c0-2.96,0.579-5.83,1.721-8.53
			c1.104-2.61,2.683-4.954,4.697-6.968s4.358-3.595,6.968-4.698c2.7-1.142,5.569-1.722,8.53-1.722c2.959,0,5.83,0.58,8.53,1.722
			c2.61,1.104,4.954,2.684,6.968,4.698s3.594,4.358,4.697,6.968c1.143,2.7,1.721,5.57,1.721,8.53c0,2.959-0.578,5.83-1.721,8.53
			C-443.693-110.963-445.273-108.619-447.287-106.605z M-453.776-134.608h-4.492c-1.919,0-3.479,1.56-3.479,3.478v4.492
			c0,1.918,1.561,3.479,3.479,3.479h4.492c1.917,0,3.477-1.561,3.477-3.479v-4.492C-450.3-133.048-451.859-134.608-453.776-134.608z
			 M-467.302-134.608h-4.492c-1.919,0-3.479,1.56-3.479,3.478v4.492c0,1.918,1.56,3.479,3.479,3.479h4.492
			c1.919,0,3.477-1.561,3.477-3.479v-4.492C-463.825-133.048-465.385-134.608-467.302-134.608z M-453.776-121.047h-4.492
			c-1.919,0-3.479,1.561-3.479,3.479v4.492c0,1.917,1.561,3.477,3.479,3.477h4.492c1.917,0,3.477-1.56,3.477-3.477v-4.492
			C-450.3-119.486-451.859-121.047-453.776-121.047z M-467.302-121.047h-4.492c-1.919,0-3.479,1.561-3.479,3.479v4.492
			c0,1.917,1.56,3.477,3.479,3.477h4.492c1.919,0,3.477-1.56,3.477-3.477v-4.492C-463.825-119.486-465.385-121.047-467.302-121.047z
			"/>
	</g>
</g>
<path fill="#666666" d="M-397.687-114.198l10.837-3.076l-7.741-7.69L-397.687-114.198L-397.687-114.198z M-368.744-135.266
	l-7.741-7.69l-17.028,16.919l7.741,7.69L-368.744-135.266L-368.744-135.266z M-371-106.785c0,2.673-2.168,4.841-4.841,4.841h-29.053
	c-2.672,0-4.84-2.168-4.84-4.841v-29.044c0-2.674,2.168-4.84,4.84-4.84h19.369l4.84-4.841h-25.82c-4.457,0-8.07,3.612-8.07,8.068
	v32.27c0,4.456,3.613,8.069,8.07,8.069h32.275c4.457,0,8.07-3.613,8.07-8.069v-25.817l-4.84,4.842L-371-106.785L-371-106.785z
	 M-365.147-141.726l-4.837-4.808c-0.801-0.796-2.146-0.752-3.001,0.096l-2.321,2.306l7.741,7.692l2.321-2.308
	C-364.389-139.597-364.347-140.93-365.147-141.726L-365.147-141.726z"/>
<g>
	<g>
		<path fill="#666666" d="M-324.793-113.815c-0.321-0.056-0.622-0.082-0.907-0.082c-1.302,0-2.075,0.568-2.897,1.172
			c-0.63,0.471-1.351,1.005-2.266,1.217c-0.973,0.232-1.925,0.272-2.743,0.115l-0.11-0.027c-5.611-1.185-10.961-9.473-10.046-15.558
			c0.188-1.239,0.627-2.104,1.07-2.853c0.5-0.842,1.204-1.379,1.827-1.853l0.017-0.017c1.013-0.775,1.888-1.444,2.262-3.416
			c0.537-3.558-3.593-9.033-4.423-10.093c-1.054-1.338-2.116-1.953-3.263-1.89c-1.302,0.076-3.458,1.115-6.339,5.656
			c-0.977,1.54-1.644,3.438-1.973,5.644c-2.633,17.416,8.719,34.996,24.787,38.386l0.265,0.051c0.871,0.172,1.737,0.26,2.575,0.26
			c0.969,0,1.896-0.119,2.759-0.348c4.944-1.33,6.6-3.15,7.116-4.444c0.452-1.129,0.285-2.423-0.513-3.954
			C-318.49-107.55-321.644-113.151-324.793-113.815z M-319.532-103.027c-0.004,0.017-0.639,1.532-5.318,2.793
			c-1.241,0.33-2.686,0.352-4.219,0.057l-0.228-0.047c-14.436-3.045-25.027-19.454-22.667-35.112
			c0.265-1.776,0.785-3.286,1.55-4.492c2.75-4.335,4.264-4.404,4.276-4.404c0.208,0,0.484,0.106,1.099,0.881
			c1.741,2.211,4.085,6.071,3.837,7.721c-0.155,0.801-0.31,0.919-1.168,1.575l-0.02,0.016c-0.741,0.572-1.758,1.353-2.543,2.661
			c-0.569,0.964-1.192,2.187-1.452,3.94c-1.14,7.517,5.224,17.372,12.157,18.832l0.143,0.033c0.509,0.098,1.029,0.148,1.554,0.148
			c0.964,0,1.737-0.162,2.234-0.285c1.416-0.331,2.449-1.088,3.202-1.644c0.667-0.496,0.919-0.682,1.371-0.682
			c0.122,0,0.273,0.015,0.468,0.045c1.497,0.317,4.02,4.022,5.334,6.551C-319.43-103.499-319.483-103.14-319.532-103.027z
			 M-317.904-137.922c-3.035-4.355-7.413-7.649-12.687-9.077c-1.168-0.313-2.348,0.449-2.645,1.708
			c-0.289,1.262,0.423,2.537,1.587,2.851c4.272,1.155,7.82,3.818,10.27,7.328c2.502,3.587,3.869,8.059,3.715,12.703
			c-0.041,1.296,0.899,2.378,2.1,2.427c1.2,0.047,2.209-0.969,2.25-2.26C-313.124-127.979-314.812-133.497-317.904-137.922z
			 M-333.061-132.941c2.071,0.82,3.76,2.327,4.895,4.209c1.14,1.894,1.726,4.179,1.575,6.537c-0.077,1.292,0.83,2.411,2.035,2.5
			c1.196,0.083,2.234-0.896,2.319-2.187c0.208-3.387-0.635-6.673-2.283-9.407c-1.636-2.72-4.069-4.891-7.039-6.061
			c-1.131-0.45-2.384,0.177-2.795,1.396C-334.773-134.736-334.192-133.387-333.061-132.941z"/>
	</g>
</g>
<g>
	<g>
		<path fill="#666666" d="M21.214-202.38l-6.165-6.276c-0.605-0.612-1.577-0.612-2.185,0c-0.602,0.617-0.602,1.606,0,2.223
			l3.537,3.592H5.218c-0.853,0-1.541,0.702-1.541,1.569c0,0.869,0.688,1.569,1.541,1.569h11.184l-3.537,3.594
			c-0.602,0.617-0.602,1.604,0,2.222c0.303,0.304,0.698,0.456,1.089,0.456c0.397,0,0.793-0.151,1.096-0.456l6.165-6.276
			C21.817-200.775,21.817-201.768,21.214-202.38z M10.314-181.125c-0.338-0.054-0.661-0.081-0.96-0.081
			c-1.38,0-2.2,0.568-3.069,1.172c-0.672,0.47-1.434,1.004-2.404,1.216c-1.032,0.232-2.042,0.273-2.908,0.115l-0.116-0.026
			c-5.946-1.185-11.618-9.473-10.648-15.558c0.2-1.239,0.664-2.103,1.136-2.852c0.527-0.843,1.274-1.382,1.934-1.855l0.02-0.015
			c1.073-0.775,2-1.445,2.397-3.417c0.57-3.558-3.809-9.032-4.691-10.094c-1.116-1.338-2.243-1.955-3.457-1.888
			c-1.38,0.073-3.665,1.115-6.717,5.656c-1.039,1.538-1.743,3.438-2.095,5.643c-2.788,17.417,9.243,34.997,26.272,38.387
			l0.283,0.052c0.921,0.171,1.839,0.257,2.728,0.257c1.029,0,2.012-0.116,2.925-0.347c5.243-1.33,6.996-3.149,7.542-4.443
			c0.479-1.129,0.301-2.422-0.544-3.955C16.999-174.858,13.654-180.461,10.314-181.125z M15.892-170.335
			c-0.006,0.015-0.679,1.532-5.64,2.793c-1.312,0.332-2.843,0.35-4.469,0.057l-0.243-0.047
			c-15.301-3.045-26.53-19.453-24.026-35.112c0.28-1.776,0.833-3.286,1.644-4.491c2.915-4.336,4.517-4.406,4.533-4.406
			c0.218,0,0.511,0.106,1.165,0.882c1.846,2.21,4.328,6.069,4.066,7.72c-0.163,0.801-0.327,0.919-1.235,1.575l-0.023,0.017
			c-0.788,0.569-1.867,1.351-2.697,2.659c-0.605,0.965-1.263,2.188-1.543,3.942c-1.203,7.515,5.542,17.371,12.889,18.833
			l0.151,0.031c0.537,0.098,1.092,0.148,1.648,0.148c1.022,0,1.841-0.163,2.365-0.285c1.505-0.332,2.596-1.089,3.395-1.642
			c0.709-0.497,0.975-0.682,1.454-0.682c0.13,0,0.29,0.015,0.5,0.045c1.583,0.316,4.259,4.021,5.654,6.55
			C16-170.808,15.943-170.448,15.892-170.335z"/>
	</g>
</g>
<g>
	<g>
		<path fill="#666666" d="M159.992-108.059c1.189-0.042,2.383-0.011,3.573-0.011v0.008c1.071,0,2.148,0.055,3.213-0.023
			c0.538-0.04,1.447,0.43,1.473-0.72c0.018-0.841-0.202-1.695-1.13-1.809c-2.48-0.303-4.981-0.329-7.46,0.023
			c-0.598,0.085-1.288,0.588-1.075,1.414C158.752-108.53,159.176-108.032,159.992-108.059z M160.549-113.274
			c1.903-0.008,3.824-0.16,5.706,0.046c2.312,0.255,4.004-0.541,5.522-2.781c-3.938,0-7.603,0.019-11.267-0.012
			c-0.995-0.009-1.933,0.155-1.892,1.32C158.656-113.647,159.543-113.271,160.549-113.274z M172.914-103.248
			c-0.856-0.915-1.625-1.981-3.205-1.918c-3.027,0.123-6.062,0.066-9.093,0.015c-1.079-0.018-2.067,0.234-2.026,1.407
			c0.039,1.132,1.052,1.406,2.112,1.381c1.841-0.043,3.686-0.012,5.528-0.012v-0.012c2.022,0,4.042,0.011,6.062-0.006
			C172.836-102.398,173.631-102.482,172.914-103.248z M183.974-95.717c-1.392,1.052-3.349,0.457-4.942,1.386
			c-0.49,0.286-0.897,0.646-1.16,1.055c-1.381,2.146-2.651,4.365-4.025,6.517c-0.81,1.27-0.499,2.385,0.523,3.165
			c1.092,0.831,2.419,0.817,3.295-0.394c2.471-3.407,4.863-6.874,7.262-10.332C185.591-95.279,185.005-95.589,183.974-95.717z
			 M198.566-114.082c-0.89-2.084-2.603-1.096-4.036-1.181c-1.349-0.08-2.734,1.492-3.878,0.455
			c-0.988-0.895-1.565-2.387-2.016-3.722c-0.583-1.724-1.936-2.939-3.012-4.737c3.814,1.504,6.109,0.103,7.223-1.747
			c1.282-2.13,0.93-4.925-0.81-6.567c-1.759-1.66-4.41-1.91-6.363-0.597c-2.497,1.678-2.851,3.825-1.162,8.081
			c-2.711-0.871-4.957-2.189-7.344-3.153c-0.951-0.384-1.855-1.344-2.961-0.881c-2.928,1.226-5.844,2.493-8.69,3.9
			c-1.757,0.868-2.13,2.107-1.391,3.488c0.602,1.127,2.124,1.489,3.625,0.818c1.286-0.574,2.581-1.137,3.814-1.816
			c2.065-1.138,3.936-1.157,5.952,0.28c1.314,0.937,1.124,1.506,0.155,2.449c-2.196,2.135-4.541,4.124-6.375,6.618
			c-1.347,1.831-1.283,3.723,0.331,5.302c1.987,1.944,4.067,3.793,6.085,5.706c0.625,0.591,1.172,1.186-0.296,1.466
			c-1.968,0.375-3.902,0.915-5.864,1.326c-1.434,0.299-2.609,1.663-2.363,2.861c0.29,1.412,1.999,2.318,3.469,1.963
			c3.884-0.94,7.768-1.867,11.673-2.702c2.002-0.428,2.94-2.472,1.735-4.121c-1.121-1.53-2.327-2.996-3.409-4.553
			c-2.541-3.653-2.519-3.668,0.681-6.864c1.799-1.796,1.784-1.787,3.152,0.551c0.596,1.015,1.103,2.252,2.571,2.132
			c2.895-0.235,5.697-0.995,8.483-1.76C198.599-111.378,199.02-113.018,198.566-114.082z"/>
	</g>
</g>
<path fill="#666666" d="M25.103-121.294c0-10.041-9.403-19.697-19.181-19.697c-9.779,0-19.181,9.656-19.181,19.697
	c0,7.334,4.87,14.465,10.961,17.34v9.259c0,1.673,2.164,3.703,3.794,3.703h8.853c1.63,0,3.794-2.03,3.794-3.703v-5.556l0,0v-3.704
	C20.232-106.829,25.103-113.96,25.103-121.294z M10.489-96.546c0,0.837-1.012,1.852-1.827,1.852h-5.48
	c-0.815,0-1.827-1.015-1.827-1.852v-1.852c0-0.837,1.012-1.852,1.827-1.852h5.48c0.815,0,1.686,0.846,1.686,1.683L10.489-96.546z
	 M10.348-106.838l0.141,2.884H1.355l0.14-2.884c-5.986-1.931-10.328-7.672-10.328-14.456c0-8.368,6.606-15.151,14.755-15.151
	c8.149,0,14.755,6.783,14.755,15.151C20.676-114.51,16.334-108.769,10.348-106.838z"/>
<path fill="#666666" d="M109.445-136.629c-5.344-5.438-14.078-5.573-21.386,1.52L65.71-113.415
	c-3.553,3.449-3.623,12.13,1.721,17.568c5.344,5.438,14.078,5.573,17.631,2.124l22.349-21.694
	C114.72-122.51,114.789-131.191,109.445-136.629L109.445-136.629z M83.61-97.348c-3.416,3.315-9.322,2.811-13.192-1.127
	c-3.87-3.938-4.239-9.818-0.823-13.134l11.528-11.19l14.016,14.262L83.61-97.348L83.61-97.348z M83.61-97.348"/>
<g>
	<g>
		<path fill-rule="evenodd" clip-rule="evenodd" fill="#666666" d="M-467.197-37.806c1.059,0,2.303-1.482,2.303-2.578v-11.905
			c0-1.096-1.243-2.381-2.303-2.381c-1.06,0-2.303,1.285-2.303,2.381v11.905C-469.5-39.288-468.256-37.806-467.197-37.806z
			 M-467.197-67.765c-12.718,0-24.18,11.851-24.18,25s11.462,25,24.18,25c12.718,0,24.18-11.85,24.18-25
			S-454.479-67.765-467.197-67.765z M-467.197-21.756c-11.222,0-20.32-9.406-20.32-21.008c0-11.602,9.098-21.008,20.32-21.008
			c11.222,0,20.319,9.406,20.319,21.008C-446.877-31.162-455.975-21.756-467.197-21.756z M-467.155-35.634
			c-1.276,0-2.31,1.066-2.31,2.38c0,1.315,1.034,2.38,2.31,2.38c1.275,0,2.309-1.066,2.309-2.38
			C-464.846-34.569-465.88-35.634-467.155-35.634z"/>
	</g>
</g>
<g>
	<g>
		<path fill="#666666" d="M-247.409-122.294c2.31,0,4.525,0.352,6.587,1c2.144,0.671,4.125,1.662,5.878,2.911
			c0.664,0.474,1.611,0.362,2.123-0.254c0.512-0.611,0.39-1.493-0.274-1.967c-2.022-1.442-4.297-2.583-6.754-3.358
			c-0.224-0.07-0.449-0.136-0.677-0.201c0.925-0.518,1.776-1.137,2.536-1.842c2.407-2.235,3.902-5.32,3.902-8.73
			c0-3.404-1.495-6.489-3.902-8.725c-2.412-2.235-5.741-3.616-9.419-3.616c-3.674,0-7.008,1.381-9.414,3.616
			c-2.412,2.235-3.902,5.32-3.902,8.725c0,3.409,1.49,6.494,3.902,8.73c0.758,0.704,1.609,1.323,2.533,1.841
			c-3.724,1.055-7.055,2.942-9.738,5.428c-4.256,3.944-6.886,9.392-6.886,15.407c0,0.714,0.04,1.446,0.121,2.193
			c0.081,0.732,0.198,1.46,0.354,2.174c0.167,0.76,0.968,1.249,1.789,1.094c0.821-0.155,1.348-0.897,1.18-1.658
			c-0.131-0.615-0.238-1.244-0.304-1.883c-0.066-0.606-0.101-1.245-0.101-1.921c0-5.24,2.29-9.978,5.994-13.411
			C-258.176-120.171-253.058-122.294-247.409-122.294z M-254.675-127.995c-1.859-1.723-3.01-4.104-3.01-6.738
			c0-2.63,1.15-5.01,3.01-6.734s4.429-2.789,7.266-2.789c2.837,0,5.411,1.066,7.271,2.789s3.009,4.104,3.009,6.734
			c0,2.634-1.15,5.015-3.009,6.738c-1.859,1.723-4.434,2.789-7.271,2.789C-250.246-125.206-252.815-126.272-254.675-127.995z
			 M-250.053-113.663c0,0.911,0.795,1.643,1.773,1.643h25.593c0.978,0,1.773-0.732,1.773-1.643c0-0.906-0.795-1.644-1.773-1.644
			h-25.593C-249.258-115.307-250.053-114.569-250.053-113.663z M-222.687-107.864h-25.593c-0.978,0-1.773,0.737-1.773,1.644
			c0,0.906,0.795,1.644,1.773,1.644h25.593c0.978,0,1.773-0.738,1.773-1.644C-220.914-107.127-221.709-107.864-222.687-107.864z
			 M-222.687-100.421h-25.593c-0.978,0-1.773,0.732-1.773,1.643c0,0.907,0.795,1.644,1.773,1.644h25.593
			c0.978,0,1.773-0.737,1.773-1.644C-220.914-99.688-221.709-100.421-222.687-100.421z"/>
	</g>
</g>
<g>
	<g>
		<path fill-rule="evenodd" clip-rule="evenodd" fill="#666666" d="M-135.54-112.844c-1.26-1.235-3.002-2.002-4.929-2.002
			c-1.922,0-3.664,0.767-4.929,2.002c-1.259,1.24-2.041,2.949-2.041,4.833c0,1.889,0.782,3.599,2.041,4.834
			c0.483,0.474,1.031,0.874,1.638,1.191c-0.702,3.837-2.808,6.284-5.312,7.451c-1.2,0.557-2.489,0.83-3.749,0.82
			c-1.25-0.005-2.474-0.283-3.57-0.83c-2.181-1.084-3.829-3.261-4.013-6.459v-7.987c2.828-0.293,5.82-1.577,8.24-3.584
			c2.863-2.378,4.979-5.781,5.153-9.76c0.005-0.02,0.005-0.044,0.005-0.083c0.005-0.063,0.01-0.127,0.01-0.19v-13.148h-0.005v-0.073
			c-0.06-1.372-0.523-2.461-1.314-3.237c-0.837-0.815-1.967-1.23-3.321-1.235v-0.005h-4.436c-0.961,0-1.742,0.767-1.742,1.709
			c0,0.942,0.782,1.709,1.742,1.709h4.436v-0.005c0.398,0,0.687,0.083,0.857,0.244c0.169,0.166,0.274,0.464,0.304,0.894h-0.005
			v13.148c0,0.024,0,0.054,0.005,0.078l-0.005,0.049c-0.13,2.934-1.743,5.488-3.933,7.299c-2.211,1.836-4.969,2.9-7.364,2.842
			l-0.135-0.005h-0.149l-0.134,0.005c-2.4,0.059-5.158-1.006-7.369-2.842c-2.191-1.811-3.804-4.365-3.933-7.299v-13.275
			c0.025-0.43,0.134-0.728,0.303-0.894c0.164-0.161,0.458-0.244,0.852-0.244v0.005h4.436c0.966,0,1.742-0.767,1.742-1.709
			c0-0.942-0.777-1.709-1.742-1.709h-4.436v0.005c-1.354,0.005-2.485,0.42-3.316,1.235c-0.792,0.776-1.255,1.865-1.32,3.237v0.073
			h-0.005v13.148c0,0.063,0.005,0.127,0.01,0.19c0.005,0.039,0.005,0.063,0.005,0.083c0.179,3.979,2.29,7.382,5.158,9.76
			c2.33,1.933,5.188,3.198,7.921,3.545v7.983c0,0.078,0.005,0.151,0.015,0.225c0.264,4.57,2.688,7.724,5.915,9.325
			c1.573,0.776,3.331,1.181,5.123,1.191c1.778,0.01,3.58-0.366,5.248-1.143c3.395-1.582,6.253-4.789,7.209-9.725
			c1.887-0.025,3.6-0.781,4.839-2.002c1.264-1.235,2.041-2.944,2.041-4.834C-133.499-109.895-134.276-111.604-135.54-112.844z
			 M-138.004-105.593c-0.627,0.62-1.499,1.001-2.465,1.001c-0.961,0-1.832-0.381-2.465-1.001c-0.627-0.615-1.021-1.475-1.021-2.417
			c0-0.942,0.393-1.797,1.021-2.416c0.632-0.615,1.504-1.001,2.465-1.001c0.966,0,1.837,0.381,2.465,1.001
			c0.632,0.62,1.021,1.474,1.021,2.416C-136.984-107.068-137.372-106.209-138.004-105.593z M-140.469-108.986
			c-0.548,0-0.996,0.439-0.996,0.976c0,0.537,0.448,0.977,0.996,0.977s0.996-0.439,0.996-0.977
			C-139.473-108.547-139.921-108.986-140.469-108.986z"/>
	</g>
</g>
<g>
	<g>
		<path fill="#666666" d="M-68.803-137.02h-22.516c-5.608,0-10.17,4.643-10.17,10.35v29.301c0,5.707,4.562,10.349,10.17,10.349
			h22.516c5.608,0,10.17-4.643,10.17-10.349v-29.301C-58.632-132.377-63.195-137.02-68.803-137.02z M-62.023-97.369
			c0,3.805-3.042,6.899-6.78,6.899h-22.516c-3.738,0-6.78-3.095-6.78-6.899v-29.301c0-3.805,3.041-6.9,6.78-6.9h1.827
			c-0.254,0.302-0.409,0.693-0.409,1.121c0,0.953,0.759,1.725,1.695,1.725h16.792c0.936,0,1.695-0.772,1.695-1.725
			c0-0.429-0.155-0.82-0.409-1.121h1.324c3.738,0,6.78,3.095,6.78,6.9V-97.369z M-68.464-119.287h-13.854
			c-0.936,0-1.695,0.772-1.695,1.725c0,0.952,0.759,1.725,1.695,1.725h13.854c0.936,0,1.695-0.773,1.695-1.725
			C-66.768-118.515-67.528-119.287-68.464-119.287z M-88.956-119.287h-2.695c-0.936,0-1.695,0.772-1.695,1.725
			c0,0.952,0.759,1.725,1.695,1.725h2.695c0.936,0,1.695-0.773,1.695-1.725C-87.261-118.515-88.021-119.287-88.956-119.287z
			 M-68.464-112.594h-13.854c-0.936,0-1.695,0.772-1.695,1.725c0,0.953,0.759,1.725,1.695,1.725h13.854
			c0.936,0,1.695-0.772,1.695-1.725C-66.768-111.822-67.528-112.594-68.464-112.594z M-88.956-112.594h-2.695
			c-0.936,0-1.695,0.772-1.695,1.725c0,0.953,0.759,1.725,1.695,1.725h2.695c0.936,0,1.695-0.772,1.695-1.725
			C-87.261-111.822-88.021-112.594-88.956-112.594z M-68.464-105.902h-13.854c-0.936,0-1.695,0.772-1.695,1.725
			c0,0.953,0.759,1.725,1.695,1.725h13.854c0.936,0,1.695-0.772,1.695-1.725C-66.768-105.13-67.528-105.902-68.464-105.902z
			 M-88.956-105.902h-2.695c-0.936,0-1.695,0.772-1.695,1.725c0,0.953,0.759,1.725,1.695,1.725h2.695
			c0.936,0,1.695-0.772,1.695-1.725C-87.261-105.13-88.021-105.902-88.956-105.902z"/>
	</g>
</g>
</svg>
