<?xml version="1.0" encoding="utf-8"?>
<!-- Generator: Adobe Illustrator 16.0.0, SVG Export Plug-In . SVG Version: 6.00 Build 0)  -->
<!DOCTYPE svg PUBLIC "-//W3C//DTD SVG 1.1//EN" "http://www.w3.org/Graphics/SVG/1.1/DTD/svg11.dtd">
<svg version="1.1" id="图层_1" xmlns="http://www.w3.org/2000/svg" xmlns:xlink="http://www.w3.org/1999/xlink" x="0px" y="0px"
	 width="50px" height="50px" viewBox="0 0 50 50" enable-background="new 0 0 50 50" xml:space="preserve">
<g>
	<g>
		<g>
			<path fill="#666666" d="M39.915,33.428c-3.062-1.726-2.907-0.396-9.151,3.432c-2.918,1.772-6.876-1.15-6.876-1.15
				s-3.14-1.979-5.38-4.223c-2.227-2.232-4.229-5.368-4.229-5.368s-2.925-3.961-1.139-6.881c3.828-6.238,5.146-6.09,3.433-9.17
				C10.586-0.611,6.61-0.173,5.634,0.1C1.782,1.167-1.329,8.162,0.576,15.799c1.912,7.672,5.968,15.354,12.102,21.531
				c6.171,6.133,13.857,10.182,21.531,12.092c7.63,1.906,14.629-1.211,15.699-5.057C50.167,43.389,50.611,39.412,39.915,33.428z
				 M27.257,6.238h20.054c1.025,0,1.854-0.834,1.854-1.853c0-1.027-0.829-1.855-1.854-1.855H27.257
				c-1.026,0-1.854,0.828-1.854,1.855C25.402,5.404,26.229,6.238,27.257,6.238z M27.257,13.926h20.054
				c1.025,0,1.854-0.836,1.854-1.855c0-1.026-0.829-1.855-1.854-1.855H27.257c-1.026,0-1.854,0.829-1.854,1.855
				C25.402,13.09,26.229,13.926,27.257,13.926z M27.257,21.605h20.054c1.025,0,1.854-0.829,1.854-1.855
				c0-1.021-0.829-1.855-1.854-1.855H27.257c-1.026,0-1.854,0.835-1.854,1.855C25.402,20.776,26.229,21.605,27.257,21.605z"/>
		</g>
	</g>
</g>
</svg>
