<?xml version="1.0" encoding="utf-8"?>
<!-- Generator: Adobe Illustrator 16.0.0, SVG Export Plug-In . SVG Version: 6.00 Build 0)  -->
<!DOCTYPE svg PUBLIC "-//W3C//DTD SVG 1.1//EN" "http://www.w3.org/Graphics/SVG/1.1/DTD/svg11.dtd">
<svg version="1.1" id="图层_1" xmlns="http://www.w3.org/2000/svg" xmlns:xlink="http://www.w3.org/1999/xlink" x="0px" y="0px"
	 width="50px" height="50px" viewBox="0 0 50 50" enable-background="new 0 0 50 50" xml:space="preserve">
<g>
	<g>
		<g>
			<path fill="#666666" d="M49.546,15.342c-0.339-1.691-1.179-3.301-2.524-4.615C45.221,8.975,42.869,8.1,40.51,8.1L25.002,8.139
				c-0.58-0.658-1.264-1.252-2.052-1.738C21.415,5.45,19.704,5,18.009,5H9.233C6.875,5,4.518,5.874,2.718,7.627
				c-1.694,1.65-2.58,3.783-2.677,5.945H0v23.196c0,2.182,0.814,4.235,2.29,5.784C3.788,44.131,5.793,45,7.928,45h34.147
				c2.136,0,4.141-0.869,5.638-2.447C49.191,41.004,50,38.949,50,36.768V17.055C50,16.446,49.836,15.86,49.546,15.342z
				 M40.545,10.629c1.686,0,3.367,0.625,4.652,1.875c0.33,0.322,0.615,0.672,0.859,1.041H27.973l-1.397-2.916H40.545z M4.543,9.405
				c1.283-1.256,2.965-1.881,4.652-1.881h8.834c1.212,0,2.438,0.322,3.533,1.002c1.099,0.684,1.917,1.623,2.428,2.693l-0.629-1.316
				l1.749,3.643L2.651,13.569C2.739,12.051,3.356,10.561,4.543,9.405z M47.387,36.768c0,1.535-0.563,2.979-1.591,4.058
				c-0.997,1.051-2.319,1.631-3.721,1.631H7.928c-1.401,0-2.722-0.58-3.721-1.631c-1.027-1.078-1.59-2.521-1.59-4.058V16.124h43.977
				c0.479,0,0.793,0.512,0.793,0.932V36.768z M30.648,26.717h-4.104v-3.998c0-0.83-0.692-1.504-1.542-1.504
				c-0.855,0-1.548,0.674-1.548,1.504v3.998h-4.103c-0.853,0-1.544,0.674-1.544,1.506c0,0.83,0.692,1.504,1.544,1.504h4.103v3.996
				c0,0.83,0.692,1.504,1.548,1.504c0.852,0,1.542-0.674,1.542-1.504v-3.996h4.104c0.854,0,1.543-0.674,1.543-1.504
				C32.191,27.391,31.504,26.717,30.648,26.717z"/>
		</g>
	</g>
</g>
</svg>
