<?xml version="1.0" encoding="utf-8"?>
<!-- Generator: Adobe Illustrator 16.0.0, SVG Export Plug-In . SVG Version: 6.00 Build 0)  -->
<!DOCTYPE svg PUBLIC "-//W3C//DTD SVG 1.1//EN" "http://www.w3.org/Graphics/SVG/1.1/DTD/svg11.dtd">
<svg version="1.1" id="图层_1" xmlns="http://www.w3.org/2000/svg" xmlns:xlink="http://www.w3.org/1999/xlink" x="0px" y="0px"
	 width="50px" height="50px" viewBox="0 0 50 50" enable-background="new 0 0 50 50" xml:space="preserve">
<g>
	<g>
		<path fill="#666666" d="M34.34,33.288c-0.322-0.057-0.623-0.082-0.908-0.082c-1.301,0-2.074,0.568-2.896,1.172
			c-0.631,0.471-1.351,1.004-2.266,1.217c-0.973,0.232-1.926,0.271-2.743,0.115l-0.111-0.027
			c-5.61-1.186-10.961-9.473-10.045-15.558c0.188-1.238,0.627-2.104,1.07-2.852c0.5-0.842,1.204-1.379,1.827-1.854l0.017-0.017
			c1.013-0.775,1.888-1.444,2.262-3.416c0.537-3.558-3.593-9.033-4.423-10.093c-1.054-1.338-2.116-1.953-3.263-1.89
			C11.558,0.08,9.401,1.12,6.521,5.66C5.544,7.2,4.877,9.099,4.547,11.304C1.915,28.72,13.267,46.3,29.335,49.689L29.6,49.74
			c0.871,0.172,1.737,0.26,2.575,0.26c0.969,0,1.896-0.119,2.759-0.348c4.943-1.33,6.6-3.149,7.116-4.444
			c0.452-1.129,0.285-2.422-0.513-3.953C40.643,39.554,37.488,33.952,34.34,33.288z M39.601,44.075
			c-0.004,0.018-0.639,1.533-5.317,2.794c-1.242,0.33-2.686,0.352-4.22,0.057l-0.228-0.047C15.399,43.833,4.808,27.425,7.167,11.768
			c0.265-1.776,0.785-3.286,1.55-4.492c2.75-4.335,4.264-4.404,4.276-4.404c0.208,0,0.484,0.106,1.099,0.881
			c1.741,2.211,4.085,6.071,3.837,7.721c-0.155,0.801-0.31,0.919-1.168,1.575l-0.02,0.016c-0.741,0.572-1.758,1.353-2.543,2.661
			c-0.569,0.965-1.192,2.188-1.452,3.941c-1.14,7.515,5.224,17.371,12.158,18.832l0.143,0.033c0.508,0.098,1.03,0.148,1.554,0.148
			c0.964,0,1.737-0.162,2.233-0.285c1.416-0.332,2.449-1.088,3.203-1.645c0.667-0.496,0.919-0.682,1.371-0.682
			c0.121,0,0.272,0.016,0.468,0.045c1.497,0.318,4.02,4.023,5.334,6.551C39.702,43.604,39.649,43.964,39.601,44.075z M41.229,9.182
			c-3.035-4.355-7.414-7.649-12.688-9.077c-1.168-0.313-2.348,0.449-2.645,1.708c-0.289,1.262,0.424,2.537,1.588,2.851
			c4.271,1.155,7.819,3.818,10.27,7.328c2.502,3.586,3.869,8.059,3.715,12.704c-0.041,1.294,0.898,2.376,2.1,2.425
			c1.199,0.047,2.209-0.969,2.25-2.259C46.009,19.125,44.32,13.606,41.229,9.182z M26.072,14.162c2.07,0.82,3.76,2.328,4.895,4.208
			c1.139,1.895,1.725,4.18,1.574,6.537c-0.077,1.291,0.83,2.41,2.035,2.5c1.195,0.084,2.233-0.895,2.318-2.186
			c0.208-3.388-0.635-6.673-2.282-9.407c-1.636-2.72-4.069-4.891-7.039-6.061c-1.132-0.45-2.384,0.177-2.796,1.396
			C24.359,12.368,24.94,13.716,26.072,14.162z"/>
	</g>
</g>
</svg>
