<?xml version="1.0" encoding="utf-8"?>
<!-- Generator: Adobe Illustrator 17.0.0, SVG Export Plug-In . SVG Version: 6.00 Build 0)  -->
<!DOCTYPE svg PUBLIC "-//W3C//DTD SVG 1.1//EN" "http://www.w3.org/Graphics/SVG/1.1/DTD/svg11.dtd">
<svg version="1.1" id="图层_1" xmlns="http://www.w3.org/2000/svg" xmlns:xlink="http://www.w3.org/1999/xlink" x="0px" y="0px"
	 width="50px" height="50px" viewBox="0 0 50 50" enable-background="new 0 0 50 50" xml:space="preserve">
<g>
	<g>
		<path fill="#666666" d="M15.892,18.096h-4.524c-0.958,0-1.737,0.794-1.737,1.771c0,0.976,0.779,1.771,1.737,1.771h4.524
			c0.958,0,1.737-0.794,1.737-1.771C17.629,18.89,16.85,18.096,15.892,18.096z M27.262,18.096h-4.524
			c-0.958,0-1.737,0.794-1.737,1.771c0,0.976,0.779,1.771,1.737,1.771h4.524c0.958,0,1.737-0.794,1.737-1.771
			C28.999,18.89,28.22,18.096,27.262,18.096z M38.632,18.096h-4.524c-0.958,0-1.737,0.794-1.737,1.771
			c0,0.976,0.779,1.771,1.737,1.771h4.524c0.958,0,1.737-0.794,1.737-1.771C40.369,18.89,39.59,18.096,38.632,18.096z M44.505,1.089
			H5.456C2.447,1.089,0,3.621,0,6.734v26.434c0,3.113,2.448,5.646,5.456,5.646l4.675-0.017l0.923,8.299
			c-0.028,0.572,0.134,1.031,0.457,1.364c0.581,0.602,1.703,0.601,2.284,0.001l9.336-9.646h21.373c3.03,0,5.495-2.533,5.495-5.646
			V6.734C50,3.621,47.535,1.089,44.505,1.089z M46.721,31.846c0,1.989-1.573,3.606-3.507,3.606l-20.415,0.002
			c-0.142-0.011-0.214-0.015-0.286-0.015c-0.46,0-0.864,0.165-1.166,0.475l-7.863,8.122l-0.805-7.241l-0.11-0.279
			c-0.251-0.638-0.844-1.051-1.509-1.051l-4.238-0.013c-1.93-0.005-3.501-1.622-3.501-3.606V8.234c0-2.05,1.607-3.783,3.509-3.783
			h36.384c1.901,0,3.507,1.732,3.507,3.783V31.846z"/>
	</g>
</g>
</svg>
