<?xml version="1.0" encoding="utf-8"?>
<!-- Generator: Adobe Illustrator 16.0.0, SVG Export Plug-In . SVG Version: 6.00 Build 0)  -->
<!DOCTYPE svg PUBLIC "-//W3C//DTD SVG 1.1//EN" "http://www.w3.org/Graphics/SVG/1.1/DTD/svg11.dtd">
<svg version="1.1" id="图层_1" xmlns="http://www.w3.org/2000/svg" xmlns:xlink="http://www.w3.org/1999/xlink" x="0px" y="0px"
	 width="50px" height="50px" viewBox="0 0 50 50" enable-background="new 0 0 50 50" xml:space="preserve">
<path fill="#666666" d="M16.888,32.904l10.837-3.076l-7.741-7.689L16.888,32.904L16.888,32.904z M45.83,11.837l-7.742-7.69
	L21.061,21.066l7.741,7.69L45.83,11.837L45.83,11.837z M43.574,40.318c0,2.672-2.168,4.84-4.842,4.84H9.681
	c-2.672,0-4.84-2.168-4.84-4.84V11.274c0-2.674,2.168-4.84,4.84-4.84h19.368l4.84-4.841H8.069C3.613,1.593,0,5.205,0,9.662v32.27
	C0,46.387,3.613,50,8.069,50h32.274c4.457,0,8.07-3.613,8.07-8.068V16.115l-4.84,4.843V40.318L43.574,40.318z M49.426,5.377
	L44.59,0.569c-0.801-0.796-2.146-0.752-3.002,0.096l-2.32,2.306l7.74,7.692l2.32-2.308C50.186,7.506,50.227,6.173,49.426,5.377
	L49.426,5.377z M49.426,5.377"/>
</svg>
