<?xml version="1.0" encoding="utf-8"?>
<!-- Generator: Adobe Illustrator 16.0.0, SVG Export Plug-In . SVG Version: 6.00 Build 0)  -->
<!DOCTYPE svg PUBLIC "-//W3C//DTD SVG 1.1//EN" "http://www.w3.org/Graphics/SVG/1.1/DTD/svg11.dtd">
<svg version="1.1" id="图层_1" xmlns="http://www.w3.org/2000/svg" xmlns:xlink="http://www.w3.org/1999/xlink" x="0px" y="0px"
	 width="50px" height="50px" viewBox="0 0 50 50" enable-background="new 0 0 50 50" xml:space="preserve">
<g>
	<g>
		<g>
			<path fill="#666666" d="M44.701,11.572H33.453L37.01,7.98c0.605-0.617,0.605-1.605,0-2.224c-0.611-0.61-1.59-0.61-2.199,0
				l-6.201,6.276c-0.604,0.613-0.604,1.607,0,2.217l6.201,6.276c0.308,0.303,0.705,0.454,1.104,0.454
				c0.394,0,0.791-0.151,1.097-0.454c0.604-0.617,0.604-1.605,0-2.224l-3.558-3.591h11.248c0.856,0,1.551-0.701,1.551-1.569
				C46.252,12.273,45.559,11.572,44.701,11.572z M35.92,33.287c-0.342-0.054-0.666-0.083-0.969-0.083
				c-1.387,0-2.211,0.57-3.086,1.172c-0.674,0.473-1.439,1.006-2.418,1.219c-1.039,0.231-2.055,0.271-2.924,0.114l-0.117-0.026
				c-5.981-1.185-11.689-9.473-10.712-15.557c0.2-1.239,0.669-2.104,1.143-2.851c0.532-0.845,1.281-1.382,1.943-1.855l0.021-0.015
				c1.079-0.776,2.012-1.446,2.409-3.418c0.574-3.558-3.827-9.03-4.716-10.092c-1.123-1.338-2.256-1.956-3.477-1.891
				C11.628,0.081,9.331,1.121,6.26,5.662C5.215,7.199,4.507,9.1,4.151,11.304C1.349,28.72,13.454,46.3,30.582,49.69l0.285,0.053
				c0.926,0.17,1.85,0.258,2.744,0.258c1.035,0,2.022-0.117,2.94-0.35c5.273-1.328,7.035-3.149,7.589-4.443
				c0.481-1.128,0.303-2.422-0.548-3.955C42.641,39.556,39.279,33.951,35.92,33.287z M41.531,44.075
				c-0.008,0.015-0.682,1.533-5.672,2.796c-1.322,0.329-2.861,0.349-4.5,0.056l-0.24-0.049C15.724,43.834,4.43,27.426,6.95,11.77
				C7.23,9.992,7.788,8.481,8.603,7.277c2.932-4.335,4.543-4.405,4.558-4.405c0.22,0,0.515,0.107,1.172,0.88
				c1.86,2.213,4.355,6.07,4.092,7.723c-0.164,0.801-0.327,0.918-1.245,1.574l-0.02,0.016c-0.794,0.57-1.88,1.352-2.713,2.66
				c-0.61,0.965-1.271,2.188-1.553,3.94c-1.213,7.518,5.574,17.372,12.966,18.832l0.152,0.031c0.538,0.101,1.098,0.148,1.657,0.148
				c1.026,0,1.853-0.162,2.379-0.283c1.515-0.334,2.613-1.091,3.416-1.646c0.713-0.495,0.979-0.681,1.459-0.681
				c0.134,0,0.293,0.015,0.504,0.045c1.595,0.315,4.285,4.021,5.688,6.551C41.639,43.604,41.582,43.963,41.531,44.075z"/>
		</g>
	</g>
</g>
</svg>
