<?xml version="1.0" encoding="utf-8"?>
<!-- Generator: Adobe Illustrator 16.0.0, SVG Export Plug-In . SVG Version: 6.00 Build 0)  -->
<!DOCTYPE svg PUBLIC "-//W3C//DTD SVG 1.1//EN" "http://www.w3.org/Graphics/SVG/1.1/DTD/svg11.dtd">
<svg version="1.1" id="图层_1" xmlns="http://www.w3.org/2000/svg" xmlns:xlink="http://www.w3.org/1999/xlink" x="0px" y="0px"
	 width="50px" height="50px" viewBox="0 0 50 50" enable-background="new 0 0 50 50" xml:space="preserve">
<g>
	<path fill="#666666" d="M49.169,19.426c-3.957,5.575-8.375,0.287-9.373-1.311c-0.994-1.597-7.382-7.747-14.726-7.747
		c-8.706,0-13.809,6.36-14.811,7.981c-1.001,1.621-5.445,6.987-9.424,1.33c-1.48-1.782-4.195-17.256,24.234-17.294
		C53.343,2.423,50.641,17.669,49.169,19.426L49.169,19.426z M25.07,5.047c-25.857,0-22.658,11.937-21.541,13.303
		c1.918,2.348,3.621-0.358,5.384-2.66c1.286-1.68,7.124-8.041,16.157-8.041l0,0c7.606,0,14.888,6.406,16.068,7.845
		c1.561,1.909,3.911,4.923,5.354,2.622C47.529,16.724,50.691,5.047,25.07,5.047L25.07,5.047z M25.07,13.027
		c11.701,0,20.195,17.808,20.195,26.606c0,7.865-2.615,7.982-20.195,7.982c-17.578,0-20.195-0.119-20.195-7.982
		C4.875,31.051,13.352,13.027,25.07,13.027L25.07,13.027z M25.07,44.955c15.236,0,17.5-0.099,17.5-6.704
		c0-5.994-7.36-22.562-17.5-22.562c-10.156,0-17.502,16.677-17.502,22.562C7.568,44.856,9.833,44.955,25.07,44.955L25.07,44.955z
		 M25.07,21.01c3.718,0,6.731,2.979,6.731,6.651c0,3.672-3.014,6.652-6.731,6.652c-3.719,0-6.732-2.979-6.732-6.652
		C18.338,23.988,21.352,21.01,25.07,21.01L25.07,21.01z M25.07,31.651c2.231,0,4.039-1.785,4.039-3.99
		c0-2.204-1.808-3.991-4.039-3.991c-2.231,0-4.039,1.787-4.039,3.991C21.032,29.866,22.838,31.651,25.07,31.651L25.07,31.651z"/>
</g>
</svg>
