<?xml version="1.0" encoding="utf-8"?>
<!-- Generator: Adobe Illustrator 16.0.0, SVG Export Plug-In . SVG Version: 6.00 Build 0)  -->
<!DOCTYPE svg PUBLIC "-//W3C//DTD SVG 1.1//EN" "http://www.w3.org/Graphics/SVG/1.1/DTD/svg11.dtd">
<svg version="1.1" id="图层_1" xmlns="http://www.w3.org/2000/svg" xmlns:xlink="http://www.w3.org/1999/xlink" x="0px" y="0px"
	 width="50px" height="50px" viewBox="0 0 50 50" enable-background="new 0 0 50 50" xml:space="preserve">
<g>
	<path fill="#666666" d="M27.01,2.142c-0.767-0.383-1.668-0.256-2.314,0.316L12.192,13.502l-9.965-0.041H2.22
		c-0.574,0-1.127,0.24-1.532,0.668c-0.413,0.434-0.643,1.023-0.643,1.635L0,34.227c0,0.614,0.229,1.2,0.635,1.633
		c0.405,0.438,0.962,0.682,1.54,0.682h10.081l12.439,11.004c0.398,0.354,0.895,0.533,1.391,0.533c0.314,0,0.631-0.074,0.924-0.217
		c0.762-0.381,1.25-1.195,1.25-2.09V4.229C28.26,3.336,27.771,2.523,27.01,2.142L27.01,2.142L27.01,2.142L27.01,2.142z
		 M35.438,13.681c-1.074-0.541-2.347-0.049-2.869,1.082c-0.519,1.137-0.066,2.512,0.992,3.078c0.144,0.076,3.396,1.871,3.396,6.99
		c0,5.465-3.042,7.275-3.144,7.336c-1.074,0.569-1.511,1.957-0.974,3.097c0.384,0.811,1.149,1.276,1.945,1.276
		c0.331,0,0.661-0.076,0.97-0.242c0.229-0.118,5.551-3.045,5.551-11.467C41.305,16.704,35.675,13.799,35.438,13.681L35.438,13.681
		L35.438,13.681L35.438,13.681z M42.206,6.904c-1.003-0.684-2.332-0.377-2.989,0.688c-0.65,1.063-0.363,2.488,0.631,3.188
		c0.236,0.166,5.807,4.191,5.807,14.221c0,10.051-5.344,14.081-5.559,14.235c-0.998,0.707-1.266,2.139-0.602,3.201
		c0.421,0.664,1.107,1.028,1.811,1.028c0.413,0,0.834-0.129,1.207-0.391C42.814,42.855,50,37.628,50,25
		C50,12.342,42.521,7.118,42.206,6.904L42.206,6.904L42.206,6.904L42.206,6.904z"/>
</g>
</svg>
