<?xml version="1.0" encoding="utf-8"?>
<!-- Generator: Adobe Illustrator 16.0.0, SVG Export Plug-In . SVG Version: 6.00 Build 0)  -->
<!DOCTYPE svg PUBLIC "-//W3C//DTD SVG 1.1//EN" "http://www.w3.org/Graphics/SVG/1.1/DTD/svg11.dtd">
<svg version="1.1" id="图层_1" xmlns="http://www.w3.org/2000/svg" xmlns:xlink="http://www.w3.org/1999/xlink" x="0px" y="0px"
	 width="50px" height="50px" viewBox="0 0 50 50" enable-background="new 0 0 50 50" xml:space="preserve">
<g>
	<path fill="#666666" d="M3.281,28.9h3.263v16.658C6.544,48.837,8.858,50,10.84,50c0.127,0,0.229-0.005,0.274-0.009h8.987V32.311
		c0-0.301,0.236-0.518,0.273-0.537l9.255-0.012c0.096,0.059,0.266,0.428,0.27,0.59c0.017,0.51,0.002,12.52,0,16.188l-0.002,1.451
		h8.924c1.578,0,2.914-0.737,3.863-2.136c0.619-0.907,0.857-1.789,0.9-1.955l0.033-0.127l0.063-16.98h3.15
		c1.117,0,2.033-0.493,2.58-1.386c0.396-0.651,0.59-1.5,0.59-2.595v-0.594l-0.426-0.424c-2.189-2.18-23.301-23.207-23.385-23.29
		C25.848,0.17,25.347,0,24.705,0c-0.583,0-1.05,0.168-1.392,0.505L0,24.116v0.587c0,1.082,0.365,2.125,1.029,2.936
		C1.677,28.432,2.519,28.9,3.281,28.9L3.281,28.9z M46.889,25.893c-0.014,0-0.033,0-0.059,0h-6.096l-0.062,19.459
		c-0.155,0.467-0.682,1.74-1.854,1.74H32.85c0.002-2.211,0.017-14.236-0.004-14.824c-0.014-0.496-0.191-1.274-0.647-1.971
		c-0.604-0.919-1.498-1.423-2.517-1.423h-9.31c-1.718,0-3.225,1.606-3.225,3.437v14.781l-6.109-0.005l-0.2,0.015
		c-1.183,0-1.343-0.779-1.343-1.541V26.004H3.511c-0.141-0.113-0.376-0.376-0.489-0.783L24.757,3.207l22.261,22.171
		C46.98,25.664,46.928,25.814,46.889,25.893L46.889,25.893z"/>
</g>
</svg>
