<?xml version="1.0" encoding="utf-8"?>
<!-- Generator: Adobe Illustrator 16.0.0, SVG Export Plug-In . SVG Version: 6.00 Build 0)  -->
<!DOCTYPE svg PUBLIC "-//W3C//DTD SVG 1.1//EN" "http://www.w3.org/Graphics/SVG/1.1/DTD/svg11.dtd">
<svg version="1.1" id="图层_1" xmlns="http://www.w3.org/2000/svg" xmlns:xlink="http://www.w3.org/1999/xlink" x="0px" y="0px"
	 width="50px" height="50px" viewBox="0 0 50 50" enable-background="new 0 0 50 50" xml:space="preserve">
<g>
	<path fill="#666666" d="M46.156,2.5H32.691c-3.14,0-5.937,1.477-7.691,3.758C23.245,3.977,20.448,2.5,17.309,2.5H3.85
		C1.729,2.5,0,4.185,0,6.252v34.686c0,2.065,1.723,3.75,3.85,3.75h14.135C19.871,46.484,22.383,47.5,25,47.5
		c2.616,0,5.131-1.016,7.016-2.813h14.142c2.122,0,3.843-1.686,3.843-3.75V6.252C49.999,4.185,48.277,2.5,46.156,2.5L46.156,2.5z
		 M7.018,15.737c-0.9,0-1.637-0.71-1.637-1.592c0-0.879,0.736-1.597,1.637-1.597H19.25c0.898,0,1.635,0.718,1.635,1.597
		c0,0.882-0.736,1.592-1.635,1.592H7.018z M7.018,25.527c-0.9,0-1.637-0.711-1.637-1.592c0-0.879,0.736-1.597,1.637-1.597H19.25
		c0.898,0,1.635,0.718,1.635,1.597c0,0.881-0.736,1.592-1.635,1.592H7.018z M7.018,35.316c-0.9,0-1.637-0.713-1.637-1.592
		s0.736-1.597,1.637-1.597H19.25c0.898,0,1.635,0.718,1.635,1.597s-0.736,1.592-1.635,1.592H7.018z M46.156,40.938H31.188
		c-0.562,0-1.097,0.239-1.463,0.654C28.521,42.961,26.8,43.748,25,43.748c-1.793,0-3.517-0.787-4.72-2.156
		c-0.366-0.415-0.899-0.654-1.462-0.654H3.85V6.252h13.459c3.184,0,5.768,2.52,5.768,5.623v28.164c0,1.035,0.861,1.87,1.924,1.87
		c1.063,0,1.924-0.835,1.924-1.87V11.875c0-3.104,2.591-5.623,5.769-5.623h13.465v34.686H46.156z"/>
</g>
</svg>
