<?xml version="1.0" encoding="utf-8"?>
<!-- Generator: Adobe Illustrator 17.0.0, SVG Export Plug-In . SVG Version: 6.00 Build 0)  -->
<!DOCTYPE svg PUBLIC "-//W3C//DTD SVG 1.1//EN" "http://www.w3.org/Graphics/SVG/1.1/DTD/svg11.dtd">
<svg version="1.1" id="图层_1" xmlns="http://www.w3.org/2000/svg" xmlns:xlink="http://www.w3.org/1999/xlink" x="0px" y="0px"
	 width="50px" height="50px" viewBox="0 0 50 50" enable-background="new 0 0 50 50" xml:space="preserve">
<g>
	<g>
		<path fill="#666666" d="M23.847,14.834l3.272-8.58c0.452-1.185-0.172-2.501-1.395-2.938l-8.85-3.172
			c-1.222-0.438-2.579,0.167-3.03,1.352c-0.452,1.184,0.172,2.5,1.395,2.938l3.025,1.084c-5.881,1.91-10.858,6.265-13.176,12.345
			C1.021,28.524,6.64,40.363,17.637,44.306c1.222,0.438,2.579-0.167,3.03-1.352c0.452-1.184-0.172-2.5-1.394-2.938
			C10.72,36.949,6.349,27.741,9.512,19.449c1.942-5.093,6.285-8.615,11.318-9.896l-1.409,3.695
			c-0.452,1.185,0.173,2.501,1.394,2.938C22.038,16.624,23.395,16.018,23.847,14.834z M32.363,5.694
			c-1.222-0.438-2.579,0.167-3.03,1.352c-0.452,1.184,0.172,2.5,1.394,2.938c8.553,3.066,12.924,12.275,9.761,20.568
			c-1.942,5.091-6.285,8.614-11.319,9.896l1.409-3.695c0.452-1.185-0.173-2.5-1.395-2.938c-1.222-0.438-2.578,0.167-3.03,1.352
			l-3.272,8.58c-0.452,1.185,0.173,2.5,1.394,2.938l8.85,3.173c1.222,0.438,2.578-0.167,3.03-1.352
			c0.452-1.184-0.172-2.5-1.394-2.938l-3.025-1.084c5.881-1.91,10.858-6.265,13.177-12.345C48.979,21.476,43.36,9.637,32.363,5.694z
			"/>
	</g>
</g>
</svg>
