<?xml version="1.0" encoding="utf-8"?>
<!-- Generator: Adobe Illustrator 17.0.0, SVG Export Plug-In . SVG Version: 6.00 Build 0)  -->
<!DOCTYPE svg PUBLIC "-//W3C//DTD SVG 1.1//EN" "http://www.w3.org/Graphics/SVG/1.1/DTD/svg11.dtd">
<svg version="1.1" id="图层_1" xmlns="http://www.w3.org/2000/svg" xmlns:xlink="http://www.w3.org/1999/xlink" x="0px" y="0px"
	 width="50px" height="50px" viewBox="0 0 50 50" enable-background="new 0 0 50 50" xml:space="preserve">
<g>
	<g>
		<path fill="#666666" d="M23.505,24.81c2.31,0,4.525,0.352,6.587,1c2.144,0.671,4.125,1.662,5.878,2.911
			c0.664,0.474,1.611,0.362,2.123-0.254c0.512-0.611,0.39-1.493-0.274-1.967c-2.022-1.442-4.297-2.583-6.754-3.358
			c-0.224-0.07-0.449-0.136-0.677-0.201c0.925-0.518,1.776-1.137,2.536-1.842c2.407-2.235,3.902-5.32,3.902-8.73
			c0-3.404-1.495-6.489-3.902-8.725C30.513,1.41,27.184,0.03,23.505,0.03c-3.674,0-7.008,1.381-9.414,3.616
			c-2.412,2.235-3.902,5.32-3.902,8.725c0,3.409,1.49,6.494,3.902,8.73c0.758,0.704,1.609,1.323,2.533,1.841
			c-3.724,1.055-7.055,2.942-9.738,5.428C2.63,32.314,0,37.761,0,43.776c0,0.714,0.04,1.446,0.121,2.193
			c0.081,0.732,0.198,1.46,0.354,2.174c0.167,0.76,0.968,1.249,1.789,1.094c0.821-0.155,1.348-0.897,1.18-1.658
			c-0.131-0.615-0.238-1.244-0.304-1.883c-0.066-0.606-0.101-1.245-0.101-1.921c0-5.241,2.29-9.978,5.994-13.411
			C12.738,26.933,17.856,24.81,23.505,24.81z M16.239,19.109c-1.859-1.723-3.01-4.104-3.01-6.738c0-2.63,1.15-5.01,3.01-6.734
			s4.429-2.789,7.266-2.789c2.837,0,5.411,1.066,7.271,2.789s3.01,4.104,3.01,6.734c0,2.634-1.15,5.015-3.01,6.738
			c-1.859,1.723-4.434,2.789-7.271,2.789C20.668,21.898,18.099,20.832,16.239,19.109z M20.861,33.441
			c0,0.911,0.795,1.643,1.773,1.643h25.593c0.978,0,1.773-0.732,1.773-1.643c0-0.906-0.795-1.644-1.773-1.644H22.634
			C21.656,31.797,20.861,32.535,20.861,33.441z M48.227,39.24H22.634c-0.978,0-1.773,0.737-1.773,1.644
			c0,0.906,0.795,1.644,1.773,1.644h25.593c0.978,0,1.773-0.737,1.773-1.644C50,39.977,49.205,39.24,48.227,39.24z M48.227,46.683
			H22.634c-0.978,0-1.773,0.732-1.773,1.643c0,0.907,0.795,1.644,1.773,1.644h25.593c0.978,0,1.773-0.737,1.773-1.644
			C50,47.416,49.205,46.683,48.227,46.683z"/>
	</g>
</g>
</svg>
