<?xml version="1.0" encoding="utf-8"?>
<!-- Generator: Adobe Illustrator 17.0.0, SVG Export Plug-In . SVG Version: 6.00 Build 0)  -->
<!DOCTYPE svg PUBLIC "-//W3C//DTD SVG 1.1//EN" "http://www.w3.org/Graphics/SVG/1.1/DTD/svg11.dtd">
<svg version="1.1" id="图层_1" xmlns="http://www.w3.org/2000/svg" xmlns:xlink="http://www.w3.org/1999/xlink" x="0px" y="0px"
	 width="50px" height="50px" viewBox="0 0 50 50" enable-background="new 0 0 50 50" xml:space="preserve">
<path fill="#666666" d="M25,0c3.99,0,7.592,1.876,10.19,4.915c2.187,2.553,3.656,5.93,4.031,9.692h-3.868
	c-0.348-2.72-1.437-5.144-3.014-6.987C30.454,5.415,27.856,4.048,25,4.048s-5.45,1.367-7.339,3.572
	c-1.577,1.843-2.661,4.267-3.014,6.987h-3.868c0.375-3.763,1.848-7.14,4.031-9.692C17.408,1.876,21.01,0,25,0L25,0z M25,25.419
	v-0.005c-2.942,0-5.328,2.348-5.328,5.244c0,1.934,1.08,3.61,2.666,4.515v4.987c0,1.505,1.193,2.729,2.662,2.729
	c1.473,0,2.666-1.224,2.666-2.729v-4.987c1.586-0.905,2.666-2.581,2.666-4.515C30.332,27.762,27.946,25.419,25,25.419L25,25.419z
	 M7.236,16.56h35.527l0,0c1.012,0,1.925,0.405,2.59,1.057c0.664,0.653,1.075,1.557,1.075,2.558v26.21l0,0l0,0
	c0,1-0.411,1.905-1.075,2.558C44.689,49.595,43.776,50,42.764,50l0,0l0,0H7.236c-1.008,0-1.925-0.405-2.589-1.057
	c-0.665-0.653-1.075-1.558-1.075-2.558v-26.21c0-1,0.411-1.905,1.075-2.558C5.311,16.965,6.228,16.56,7.236,16.56L7.236,16.56z
	 M43.066,46.89c0.104-0.105,0.167-0.257,0.167-0.424V20.623c0-0.167-0.063-0.319-0.167-0.429l0,0
	c-0.104-0.11-0.248-0.176-0.407-0.176H7.512c-0.158,0-0.303,0.067-0.407,0.176l0,0c-0.104,0.11-0.167,0.262-0.167,0.429v25.843
	c0,0.167,0.063,0.319,0.167,0.424c0.104,0.11,0.249,0.181,0.407,0.181H42.66C42.818,47.071,42.962,46.999,43.066,46.89L43.066,46.89
	z"/>
</svg>
