<?xml version="1.0" encoding="utf-8"?>
<!-- Generator: Adobe Illustrator 17.0.0, SVG Export Plug-In . SVG Version: 6.00 Build 0)  -->
<!DOCTYPE svg PUBLIC "-//W3C//DTD SVG 1.1//EN" "http://www.w3.org/Graphics/SVG/1.1/DTD/svg11.dtd">
<svg version="1.1" id="图层_1" xmlns="http://www.w3.org/2000/svg" xmlns:xlink="http://www.w3.org/1999/xlink" x="0px" y="0px"
	 width="50px" height="50px" viewBox="0 0 50 50" enable-background="new 0 0 50 50" xml:space="preserve">
<g>
	<g>
		<path fill="#666666" d="M6.345,24.958c1.189-0.042,2.383-0.011,3.573-0.011v0.008c1.071,0,2.148,0.055,3.213-0.023
			c0.538-0.04,1.447,0.43,1.473-0.72c0.018-0.841-0.202-1.695-1.13-1.809c-2.48-0.303-4.981-0.329-7.46,0.023
			c-0.598,0.085-1.288,0.588-1.075,1.414C5.105,24.488,5.529,24.986,6.345,24.958z M6.902,19.743
			c1.903-0.008,3.824-0.16,5.706,0.046c2.312,0.255,4.004-0.541,5.522-2.781c-3.938,0-7.603,0.019-11.267-0.012
			c-0.995-0.009-1.933,0.155-1.892,1.32C5.009,19.371,5.896,19.746,6.902,19.743z M19.267,29.769
			c-0.856-0.915-1.625-1.981-3.205-1.918c-3.027,0.123-6.062,0.066-9.093,0.015c-1.079-0.018-2.067,0.234-2.026,1.407
			c0.039,1.132,1.052,1.406,2.112,1.381c1.841-0.043,3.686-0.012,5.528-0.012V30.63c2.022,0,4.042,0.011,6.062-0.006
			C19.189,30.62,19.984,30.535,19.267,29.769z M30.327,37.301c-1.392,1.052-3.349,0.457-4.942,1.386
			c-0.49,0.286-0.897,0.646-1.161,1.055c-1.381,2.146-2.651,4.365-4.025,6.517c-0.81,1.27-0.499,2.385,0.523,3.165
			c1.092,0.831,2.419,0.817,3.295-0.394c2.471-3.407,4.863-6.874,7.262-10.332C31.944,37.738,31.358,37.429,30.327,37.301z
			 M44.919,18.935c-0.89-2.084-2.603-1.096-4.036-1.181c-1.349-0.08-2.734,1.492-3.877,0.455c-0.988-0.895-1.565-2.387-2.016-3.722
			c-0.583-1.724-1.936-2.939-3.012-4.737c3.813,1.504,6.109,0.103,7.223-1.747c1.282-2.13,0.93-4.924-0.81-6.567
			c-1.759-1.66-4.41-1.91-6.363-0.597c-2.497,1.678-2.85,3.825-1.162,8.081c-2.711-0.871-4.957-2.189-7.344-3.153
			c-0.951-0.384-1.855-1.344-2.961-0.881c-2.928,1.226-5.844,2.493-8.69,3.9c-1.756,0.868-2.13,2.107-1.39,3.488
			c0.602,1.127,2.124,1.489,3.625,0.818c1.286-0.574,2.581-1.137,3.814-1.816c2.065-1.138,3.936-1.157,5.952,0.28
			c1.314,0.937,1.124,1.506,0.155,2.449c-2.196,2.135-4.541,4.124-6.375,6.618c-1.347,1.831-1.284,3.723,0.331,5.302
			c1.987,1.944,4.067,3.792,6.085,5.706c0.625,0.591,1.172,1.186-0.296,1.466c-1.968,0.375-3.902,0.915-5.864,1.326
			c-1.434,0.299-2.609,1.663-2.363,2.861c0.29,1.412,1.999,2.318,3.469,1.963c3.884-0.94,7.768-1.867,11.673-2.702
			c2.002-0.428,2.94-2.472,1.735-4.121c-1.121-1.53-2.327-2.996-3.409-4.553c-2.541-3.653-2.519-3.668,0.681-6.864
			c1.799-1.796,1.784-1.787,3.152,0.551c0.596,1.015,1.103,2.252,2.571,2.132c2.895-0.235,5.697-0.995,8.483-1.76
			C44.952,21.639,45.373,20,44.919,18.935z"/>
	</g>
</g>
</svg>
