<?xml version="1.0" encoding="utf-8"?>
<!-- Generator: Adobe Illustrator 16.0.0, SVG Export Plug-In . SVG Version: 6.00 Build 0)  -->
<!DOCTYPE svg PUBLIC "-//W3C//DTD SVG 1.1//EN" "http://www.w3.org/Graphics/SVG/1.1/DTD/svg11.dtd">
<svg version="1.1" id="图层_1" xmlns="http://www.w3.org/2000/svg" xmlns:xlink="http://www.w3.org/1999/xlink" x="0px" y="0px"
	 width="50px" height="50px" viewBox="0 0 50 50" enable-background="new 0 0 50 50" xml:space="preserve">
<g>
	<g>
		<g>
			<path fill="#666666" d="M39.232,8.242L3.562,8.256C1.587,8.346,0.009,9.945,0,11.926l0.013,24.806
				c0.09,1.971,1.712,3.541,3.719,3.541c2.493,0,11.111,0.006,13.613,0c1.032,0,1.866-0.826,1.866-1.853
				c0-1.021-0.834-1.854-1.866-1.854L6.271,36.563c-1.987-0.043-2.43-0.289-2.524-1.761L3.731,14.149
				c-0.023-1.75,0.434-2.177,2.395-2.186l30.535-0.014c2.692,0.041,3.075,1.033,3.075,2.84c0.005,4.392-0.006,14.861,0.005,19.253
				c-0.048,2.129-0.357,2.48-2.294,2.527c-3.475,0.01-8.826,0.014-12.299,0.014c-0.979,0-1.239,0.123-1.965,0.834l-7.257,7.152
				c-1.828,1.971,0.758,4.354,2.639,2.621l6.998-6.898c5.371-0.006,8.857-0.021,14.227-0.021c1.913,0,3.473-1.437,3.686-3.279
				c-0.011-6.508-0.006-19.095-0.011-25.597C43.464,9.36,41.876,8.232,39.232,8.242z M49.984,5.182
				c0.029-1.686-1.545-2.968-3.659-2.968c-9.316,0-27.627-0.009-36.967,0c-1.032,0-1.866,0.829-1.866,1.854
				c0,1.021,0.834,1.854,1.866,1.854l34.346-0.02c1.381,0,2.64,0.491,2.55,2.242l0.016,22.891c0,2.438,3.73,2.438,3.73,0
				L49.984,5.182z M8.576,23.24c-0.909,0-1.65,0.735-1.65,1.639c0,0.908,0.741,1.637,1.65,1.637h4.914
				c0.915,0,1.649-0.729,1.649-1.637c0-0.903-0.734-1.639-1.649-1.639H8.576z M25.539,24.878c0-0.903-0.739-1.639-1.649-1.639
				h-4.919c-0.909,0-1.649,0.735-1.649,1.639c0,0.908,0.74,1.637,1.649,1.637h4.919C24.8,26.516,25.539,25.786,25.539,24.878z
				 M34.285,26.516c0.908,0,1.648-0.729,1.648-1.637c0-0.903-0.74-1.639-1.648-1.639H29.37c-0.914,0-1.647,0.735-1.647,1.639
				c0,0.908,0.733,1.637,1.647,1.637H34.285z"/>
		</g>
	</g>
</g>
</svg>
