<?xml version="1.0" encoding="utf-8"?>
<!-- Generator: Adobe Illustrator 17.0.0, SVG Export Plug-In . SVG Version: 6.00 Build 0)  -->
<!DOCTYPE svg PUBLIC "-//W3C//DTD SVG 1.1//EN" "http://www.w3.org/Graphics/SVG/1.1/DTD/svg11.dtd">
<svg version="1.1" id="图层_1" xmlns="http://www.w3.org/2000/svg" xmlns:xlink="http://www.w3.org/1999/xlink" x="0px" y="0px"
	 width="50px" height="50px" viewBox="0 0 50 50" enable-background="new 0 0 50 50" xml:space="preserve">
<g>
	<g>
		<path fill="#666666" d="M36.258,0H13.742C8.134,0,3.572,4.643,3.572,10.35v29.301C3.572,45.357,8.134,50,13.742,50h22.516
			c5.608,0,10.17-4.643,10.17-10.349V10.35C46.428,4.643,41.865,0,36.258,0z M43.038,39.651c0,3.804-3.042,6.899-6.78,6.899H13.742
			c-3.738,0-6.78-3.095-6.78-6.899V10.35c0-3.804,3.041-6.9,6.78-6.9h1.827c-0.254,0.302-0.409,0.693-0.409,1.121
			c0,0.953,0.759,1.725,1.695,1.725h16.792c0.936,0,1.695-0.772,1.695-1.725c0-0.429-0.155-0.82-0.409-1.121h1.324
			c3.738,0,6.78,3.095,6.78,6.9V39.651z M36.597,17.732H22.743c-0.936,0-1.695,0.772-1.695,1.725c0,0.952,0.759,1.725,1.695,1.725
			h13.854c0.936,0,1.695-0.773,1.695-1.725C38.292,18.505,37.533,17.732,36.597,17.732z M16.104,17.732h-2.695
			c-0.936,0-1.695,0.772-1.695,1.725c0,0.952,0.759,1.725,1.695,1.725h2.695c0.936,0,1.695-0.773,1.695-1.725
			C17.799,18.505,17.04,17.732,16.104,17.732z M36.597,24.425H22.743c-0.936,0-1.695,0.772-1.695,1.725
			c0,0.953,0.759,1.725,1.695,1.725h13.854c0.936,0,1.695-0.772,1.695-1.725C38.292,25.198,37.533,24.425,36.597,24.425z
			 M16.104,24.425h-2.695c-0.936,0-1.695,0.772-1.695,1.725c0,0.953,0.759,1.725,1.695,1.725h2.695c0.936,0,1.695-0.772,1.695-1.725
			C17.799,25.198,17.04,24.425,16.104,24.425z M36.597,31.118H22.743c-0.936,0-1.695,0.772-1.695,1.725
			c0,0.953,0.759,1.725,1.695,1.725h13.854c0.936,0,1.695-0.772,1.695-1.725C38.292,31.89,37.533,31.118,36.597,31.118z
			 M16.104,31.118h-2.695c-0.936,0-1.695,0.772-1.695,1.725c0,0.953,0.759,1.725,1.695,1.725h2.695c0.936,0,1.695-0.772,1.695-1.725
			C17.799,31.89,17.04,31.118,16.104,31.118z"/>
	</g>
</g>
</svg>
