<?xml version="1.0" encoding="utf-8"?>
<!-- Generator: Adobe Illustrator 16.0.0, SVG Export Plug-In . SVG Version: 6.00 Build 0)  -->
<!DOCTYPE svg PUBLIC "-//W3C//DTD SVG 1.1//EN" "http://www.w3.org/Graphics/SVG/1.1/DTD/svg11.dtd">
<svg version="1.1" id="图层_1" xmlns="http://www.w3.org/2000/svg" xmlns:xlink="http://www.w3.org/1999/xlink" x="0px" y="0px"
	 width="50px" height="50px" viewBox="0 0 50 50" enable-background="new 0 0 50 50" xml:space="preserve">
<g>
	<path fill="#666666" d="M-420.876-166.838h3.263v16.657c0,3.278,2.314,4.441,4.296,4.441c0.127,0,0.229-0.005,0.274-0.009h8.987
		v-17.68c0-0.3,0.236-0.517,0.273-0.537l9.256-0.011c0.095,0.058,0.264,0.428,0.269,0.59c0.016,0.508,0.002,12.518,0,16.187
		l-0.002,1.451h8.925c1.578,0,2.914-0.737,3.864-2.135c0.619-0.908,0.857-1.789,0.899-1.956l0.033-0.126l0.063-16.981h3.151
		c1.116,0,2.033-0.493,2.579-1.386c0.397-0.652,0.59-1.5,0.59-2.595v-0.594l-0.426-0.424c-2.188-2.181-23.3-23.208-23.384-23.291
		c-0.342-0.334-0.842-0.504-1.485-0.504c-0.583,0-1.05,0.168-1.392,0.505l-23.313,23.611v0.587c0,1.082,0.365,2.125,1.029,2.935
		C-422.48-167.309-421.638-166.838-420.876-166.838L-420.876-166.838z M-377.269-169.848c-0.013,0.001-0.033,0.001-0.058,0.001
		h-6.097l-0.06,19.459c-0.155,0.466-0.681,1.74-1.853,1.74h-5.968c0.002-2.211,0.016-14.236-0.004-14.824
		c-0.014-0.497-0.191-1.276-0.648-1.971c-0.604-0.919-1.498-1.423-2.517-1.423h-9.31c-1.718,0-3.225,1.607-3.225,3.436v14.782
		l-6.109-0.005l-0.2,0.014c-1.183,0-1.343-0.779-1.343-1.54v-19.557h-5.986c-0.141-0.114-0.376-0.376-0.489-0.784l21.735-22.014
		l22.26,22.171C-377.176-170.077-377.229-169.926-377.269-169.848L-377.269-169.848z"/>
</g>
<g>
	<g>
		<g>
			<path fill="#666666" d="M-304.903-159.177c-3.061-1.726-2.907-0.396-9.152,3.431c-2.918,1.773-6.876-1.15-6.876-1.15
				s-3.14-1.979-5.379-4.222c-2.227-2.233-4.229-5.369-4.229-5.369s-2.924-3.962-1.138-6.882c3.828-6.238,5.145-6.09,3.432-9.17
				c-5.986-10.677-9.962-10.239-10.938-9.966c-3.853,1.066-6.963,8.062-5.059,15.699c1.911,7.672,5.967,15.354,12.102,21.531
				c6.17,6.133,13.856,10.182,21.53,12.092c7.63,1.906,14.629-1.211,15.7-5.057C-294.65-149.217-294.206-153.192-304.903-159.177z
				 M-317.561-186.367h20.053c1.026,0,1.855-0.834,1.855-1.853c0-1.027-0.829-1.855-1.855-1.855h-20.053
				c-1.027,0-1.854,0.828-1.854,1.855C-319.415-187.201-318.587-186.367-317.561-186.367z M-317.561-178.679h20.053
				c1.026,0,1.855-0.836,1.855-1.855c0-1.026-0.829-1.855-1.855-1.855h-20.053c-1.027,0-1.854,0.829-1.854,1.855
				C-319.415-179.515-318.587-178.679-317.561-178.679z M-317.561-171h20.053c1.026,0,1.855-0.829,1.855-1.855
				c0-1.021-0.829-1.855-1.855-1.855h-20.053c-1.027,0-1.854,0.835-1.854,1.855C-319.415-171.829-318.587-171-317.561-171z"/>
		</g>
	</g>
</g>
<g>
	<g>
		<g>
			<path fill="#666666" d="M-206.954-177.263c-0.339-1.691-1.178-3.301-2.524-4.614c-1.8-1.753-4.153-2.627-6.511-2.627
				l-15.508,0.039c-0.58-0.659-1.264-1.253-2.052-1.738c-1.536-0.952-3.247-1.401-4.941-1.401h-8.776
				c-2.358,0-4.715,0.874-6.515,2.627c-1.694,1.65-2.58,3.784-2.677,5.945h-0.042v23.195c0,2.183,0.814,4.236,2.29,5.786
				c1.498,1.577,3.503,2.446,5.638,2.446h34.147c2.135,0,4.141-0.869,5.638-2.446c1.478-1.55,2.287-3.604,2.287-5.786v-19.712
				C-206.5-176.16-206.664-176.746-206.954-177.263z M-215.956-181.975c1.686,0,3.368,0.625,4.652,1.875
				c0.331,0.322,0.616,0.671,0.859,1.04h-18.084l-1.397-2.915H-215.956z M-251.957-183.201c1.283-1.255,2.965-1.88,4.652-1.88h8.834
				c1.212,0,2.438,0.322,3.533,1.001c1.099,0.684,1.917,1.623,2.428,2.693l-0.629-1.316l1.749,3.643l-22.459,0.024
				C-253.761-180.554-253.144-182.043-251.957-183.201z M-209.114-155.837c0,1.535-0.563,2.979-1.59,4.058
				c-0.998,1.05-2.319,1.631-3.721,1.631h-34.147c-1.401,0-2.722-0.581-3.721-1.631c-1.027-1.079-1.59-2.522-1.59-4.058v-20.645
				h43.976c0.479,0,0.793,0.513,0.793,0.933L-209.114-155.837L-209.114-155.837z M-225.852-165.888h-4.103v-3.997
				c0-0.83-0.692-1.504-1.543-1.504c-0.855,0-1.548,0.674-1.548,1.504v3.997h-4.103c-0.853,0-1.544,0.674-1.544,1.506
				c0,0.83,0.692,1.504,1.544,1.504h4.103v3.996c0,0.83,0.692,1.504,1.548,1.504c0.851,0,1.543-0.674,1.543-1.504v-3.996h4.103
				c0.856,0,1.544-0.674,1.544-1.504C-224.308-165.214-224.996-165.888-225.852-165.888z"/>
		</g>
	</g>
</g>
<g>
	<path fill="#666666" d="M-148.38-151.499c0.469,0.184,0.945,0.264,1.43,0.293l-1.668,2.378c-0.254,0.337-0.56,0.568-0.923,0.413
		c-0.364-0.138-0.468-0.444-0.411-0.941l0.343-2.923C-149.245-151.964-148.848-151.688-148.38-151.499L-148.38-151.499z
		 M-174.434-186.887c-1.696,0-3.288,0.687-4.488,1.919c-1.199,1.238-1.859,2.882-1.859,4.627v31.494c0,1.745,0.66,3.393,1.859,4.63
		c1.2,1.236,2.792,1.916,4.488,1.916h36.996c0.811,0,1.475-0.684,1.475-1.523c0-0.837-0.665-1.521-1.475-1.521h-36.318
		c-1.09,0-2.11-0.437-2.883-1.229c-0.769-0.792-1.191-1.85-1.191-2.973c0-35.851,0-14.521,0-30.09c0-1.125,0.426-2.18,1.195-2.973
		c0.769-0.793,1.789-1.232,2.879-1.232c9.873,0,19.739,0.005,29.611,0.005c0.811,0,1.476-0.687,1.476-1.525
		c0-0.837-0.665-1.523-1.476-1.523C-154.244-186.887-164.336-186.887-174.434-186.887L-174.434-186.887z M-170.918-173.054
		c-0.824,0-1.484-0.68-1.484-1.541c0-0.837,0.66-1.53,1.484-1.53h8.295c0.812,0,1.484,0.693,1.484,1.53
		c0,0.861-0.673,1.541-1.484,1.541H-170.918z M-170.918-156.131L-170.918-156.131h14.23c0.823,0,1.484,0.692,1.484,1.543
		c0,0.848-0.662,1.527-1.484,1.527h-14.23c-0.824,0-1.484-0.68-1.484-1.527C-172.402-155.438-171.737-156.131-170.918-156.131
		L-170.918-156.131z M-151.982-164.586L-151.982-164.586c0,0.851-0.661,1.53-1.483,1.53h-17.453c-0.824,0-1.484-0.68-1.484-1.53
		c0-0.848,0.66-1.543,1.484-1.543h17.453C-152.643-166.129-151.982-165.434-151.982-164.586L-151.982-164.586z M-138.625-187.401
		c0.807-2.154,3.164-3.224,5.249-2.392c2.098,0.835,3.126,3.267,2.32,5.415l-5.655,15.001l-7.569-3.029L-138.625-187.401z
		 M-139.114-174.539L-139.114-174.539c0.514,0.206,1.099-0.038,1.288-0.549l3.908-10.38c0.192-0.521-0.066-1.099-0.589-1.306
		c-0.514-0.206-1.095,0.038-1.295,0.549l-3.908,10.38C-139.904-175.332-139.636-174.755-139.114-174.539L-139.114-174.539z
		 M-147.48-152.365c-0.975-0.394-1.709-1.182-2.09-2.085c-0.351-0.817-0.401-1.689-0.125-2.418l5.199-13.768l6.796,2.724
		l-5.053,13.404c-0.363,0.97-1.07,1.689-1.926,2.073C-145.538-152.044-146.541-151.99-147.48-152.365L-147.48-152.365z"/>
</g>
<g>
	<path fill="#666666" d="M-66-188.688h-13.464c-3.14,0-5.937,1.477-7.692,3.758c-1.755-2.281-4.552-3.758-7.692-3.758h-13.459
		c-2.121,0-3.849,1.685-3.849,3.752v34.686c0,2.065,1.722,3.75,3.849,3.75h14.134c1.887,1.797,4.399,2.813,7.017,2.813
		c2.616,0,5.13-1.016,7.015-2.813H-66c2.122,0,3.843-1.685,3.843-3.75v-34.686C-62.157-187.003-63.878-188.688-66-188.688
		L-66-188.688z M-105.139-175.451c-0.9,0-1.636-0.71-1.636-1.592c0-0.879,0.736-1.597,1.636-1.597h12.233
		c0.898,0,1.634,0.718,1.634,1.597c0,0.882-0.736,1.592-1.634,1.592H-105.139z M-105.139-165.661c-0.9,0-1.636-0.711-1.636-1.592
		c0-0.879,0.736-1.597,1.636-1.597h12.233c0.898,0,1.634,0.718,1.634,1.597c0,0.881-0.736,1.592-1.634,1.592H-105.139z
		 M-105.139-155.871c-0.9,0-1.636-0.713-1.636-1.592s0.736-1.597,1.636-1.597h12.233c0.898,0,1.634,0.718,1.634,1.597
		s-0.736,1.592-1.634,1.592H-105.139z M-66-150.25h-14.968c-0.562,0-1.097,0.239-1.463,0.654c-1.203,1.369-2.926,2.156-4.725,2.156
		c-1.793,0-3.517-0.787-4.72-2.156c-0.366-0.415-0.9-0.654-1.461-0.654h-14.969v-34.686h13.459c3.184,0,5.768,2.52,5.768,5.623
		v28.164c0,1.035,0.861,1.87,1.924,1.87s1.923-0.835,1.923-1.87v-28.164c0-3.104,2.59-5.623,5.769-5.623H-66V-150.25z"/>
</g>
<g>
	<g>
		<g>
			<path fill="#666666" d="M-455.667-150.222l-0.069-0.015h-24.968c-1.717,0-3.115-1.355-3.115-3.021v-36.262
				c0-1.667,1.398-3.022,3.115-3.022h24.678c1.097-0.001,1.987-0.867,1.987-1.933c0-0.935-0.683-1.734-1.628-1.902l-0.069-0.013
				h-24.968c-3.902,0-7.081,3.081-7.081,6.87v36.262c0,3.787,3.178,6.868,7.081,6.868h24.678c1.094,0,1.987-0.867,1.987-1.932
				C-454.039-149.257-454.722-150.056-455.667-150.222z M-438.384-172.865l-7.474-7.276l-2.667-2.591
				c-0.376-0.365-0.873-0.564-1.404-0.564c-0.534,0-1.034,0.201-1.41,0.566c-0.715,0.692-0.787,1.79-0.167,2.557l7.006,6.827
				h-22.838c-1.097,0-1.987,0.867-1.987,1.932c0,1.067,0.89,1.934,1.987,1.934h22.838l-7.233,7.033l-0.055,0.106
				c-0.402,0.775-0.261,1.694,0.348,2.289c0.371,0.359,0.87,0.557,1.407,0.557c0.569,0,1.108-0.218,1.52-0.617l2.53-2.46
				l0.356-0.339l7.244-7.052c0.391-0.381,0.591-0.896,0.565-1.45C-437.793-171.972-437.994-172.486-438.384-172.865z"/>
		</g>
	</g>
</g>
<g>
	<g>
		<g>
			<path fill="#666666" d="M22.259-181.142l-35.671,0.014c-1.975,0.089-3.553,1.689-3.562,3.67l0.013,24.805
				c0.09,1.971,1.711,3.542,3.718,3.542c2.493,0,11.112,0.005,13.613,0c1.032,0,1.866-0.827,1.866-1.853
				c0-1.021-0.834-1.854-1.866-1.854l-11.074-0.004c-1.988-0.043-2.431-0.29-2.525-1.761l-0.015-20.652
				c-0.023-1.751,0.434-2.177,2.394-2.187l30.535-0.014c2.694,0.042,3.077,1.034,3.077,2.841c0.004,4.391-0.005,14.862,0.004,19.253
				c-0.047,2.129-0.357,2.481-2.294,2.527c-3.473,0.01-8.826,0.014-12.299,0.014c-0.98,0-1.239,0.122-1.965,0.833l-7.257,7.153
				c-1.829,1.971,0.758,4.353,2.639,2.621l6.998-6.899c5.372-0.005,8.858-0.02,14.226-0.02c1.913,0,3.473-1.436,3.685-3.28
				c-0.011-6.507-0.005-19.095-0.011-25.597C26.49-180.023,24.902-181.151,22.259-181.142z M33.012-184.203
				c0.029-1.686-1.545-2.968-3.66-2.968c-9.315,0-27.626-0.009-36.967,0c-1.032,0-1.866,0.829-1.866,1.854
				c0,1.02,0.834,1.854,1.866,1.854l34.346-0.019c1.381,0,2.641,0.491,2.551,2.242l0.015,22.89c0,2.438,3.731,2.438,3.731,0
				L33.012-184.203z M-8.397-166.144c-0.91,0-1.65,0.735-1.65,1.639c0,0.908,0.741,1.637,1.65,1.637h4.914
				c0.915,0,1.649-0.729,1.649-1.637c0-0.904-0.735-1.639-1.649-1.639H-8.397z M8.565-164.505c0-0.904-0.739-1.639-1.649-1.639
				H1.997c-0.909,0-1.649,0.735-1.649,1.639c0,0.908,0.74,1.637,1.649,1.637h4.919C7.826-162.868,8.565-163.598,8.565-164.505z
				 M17.312-162.868c0.91,0,1.649-0.729,1.649-1.637c0-0.904-0.74-1.639-1.649-1.639h-4.915c-0.915,0-1.649,0.735-1.649,1.639
				c0,0.908,0.734,1.637,1.649,1.637H17.312z"/>
		</g>
	</g>
</g>
<g>
	<path fill="#666666" d="M118.033-170.081c-3.957,5.575-8.375,0.287-9.373-1.311c-0.994-1.597-7.383-7.747-14.725-7.747
		c-8.707,0-13.81,6.36-14.812,7.981c-1.001,1.621-5.444,6.987-9.424,1.331c-1.479-1.783-4.195-17.256,24.233-17.294
		C122.207-187.083,119.504-171.837,118.033-170.081L118.033-170.081z M93.936-184.46c-25.856,0-22.658,11.937-21.541,13.303
		c1.918,2.348,3.621-0.358,5.385-2.66c1.285-1.68,7.123-8.041,16.156-8.041l0,0c7.605,0,14.888,6.406,16.066,7.845
		c1.561,1.909,3.912,4.923,5.354,2.622C116.395-172.783,119.557-184.46,93.936-184.46L93.936-184.46z M93.936-176.479
		c11.699,0,20.193,17.807,20.193,26.605c0,7.865-2.615,7.982-20.193,7.982s-20.194-0.119-20.194-7.982
		C73.74-158.456,82.217-176.479,93.936-176.479L93.936-176.479z M93.936-144.552c15.234,0,17.5-0.099,17.5-6.705
		c0-5.994-7.36-22.561-17.5-22.561c-10.156,0-17.502,16.677-17.502,22.561C76.434-144.651,78.699-144.552,93.936-144.552
		L93.936-144.552z M93.936-168.497c3.717,0,6.73,2.978,6.73,6.651c0,3.672-3.014,6.651-6.73,6.651c-3.719,0-6.731-2.979-6.731-6.651
		C87.203-165.519,90.217-168.497,93.936-168.497L93.936-168.497z M93.936-157.854c2.23,0,4.037-1.787,4.037-3.991
		c0-2.205-1.807-3.991-4.037-3.991s-4.039,1.787-4.039,3.991C89.896-159.641,91.704-157.854,93.936-157.854L93.936-157.854z"/>
</g>
<g>
	<path fill="#666666" d="M141.859-182.627h34.127c2.184,0,4.171,0.887,5.606,2.317c1.438,1.429,2.33,3.405,2.33,5.578v20.695
		c0,2.176-0.894,4.147-2.33,5.578s-3.424,2.317-5.606,2.317h-34.127c-2.183,0-4.17-0.887-5.606-2.317
		c-1.437-1.431-2.329-3.402-2.329-5.578v-20.695c0-2.173,0.893-4.149,2.329-5.578C137.689-181.74,139.678-182.627,141.859-182.627
		L141.859-182.627z M168.816-164.51l11.963,11.631c0.094-0.372,0.141-0.76,0.141-1.157v-20.695c0-0.546-0.09-1.071-0.257-1.563
		L168.816-164.51z M179.161-150.29l-12.459-12.112l-0.626,0.619v-0.004c-0.026,0.026-0.053,0.05-0.081,0.073
		c-2.399,2.07-4.729,3.129-7.093,3.141c-2.355,0.013-4.621-1.012-6.898-3.108c-0.035-0.025-0.064-0.055-0.096-0.084l-0.741-0.705
		l-12.601,12.079c0.875,0.785,2.033,1.263,3.293,1.263h34.127C177.191-149.128,178.305-149.564,179.161-150.29L179.161-150.29z
		 M137.025-153.054L149-164.536L137.068-175.9c-0.09,0.375-0.142,0.768-0.142,1.169v20.695
		C136.928-153.7,136.962-153.37,137.025-153.054L137.025-153.054z M138.689-178.483l15.295,14.571
		c0.019,0.017,0.035,0.034,0.053,0.055c1.693,1.559,3.29,2.319,4.854,2.31c1.577-0.013,3.248-0.802,5.066-2.348l0,0l14.896-14.823
		c-0.812-0.58-1.803-0.922-2.867-0.922h-34.127C140.654-179.64,139.548-179.205,138.689-178.483L138.689-178.483z"/>
</g>
<g>
	<g>
		<g>
			<path fill="#666666" d="M-252.852-116.289h-11.434c-2.759,0-4.997,2.238-4.997,4.999v11.43c0,2.761,2.238,4.999,4.997,4.999
				h11.43c2.763,0,5.001-2.238,5.005-4.993v-11.436C-247.851-114.051-250.089-116.289-252.852-116.289z M-224.279-116.289h-11.434
				c-2.767,0-5.001,2.238-5.001,4.999v11.43c0,2.761,2.234,4.999,5.001,4.999h11.426c2.759,0,4.997-2.238,5.005-4.993v-11.436
				C-219.282-114.051-221.521-116.289-224.279-116.289z M-252.852-87.716h-11.434c-2.759,0-4.997,2.238-4.997,4.997v11.43
				c0,2.763,2.238,5.001,4.997,5.001h11.43c2.763,0,5.001-2.238,5.005-4.997V-82.72C-247.851-85.479-250.089-87.716-252.852-87.716z
				 M-224.279-87.716h-11.434c-2.767,0-5.001,2.238-5.001,4.997v11.43c0,2.763,2.234,5.001,5.001,5.001h11.426
				c2.759,0,4.997-2.238,5.005-4.997V-82.72C-219.282-85.479-221.521-87.716-224.279-87.716z"/>
		</g>
	</g>
</g>
<g>
	<path fill="#666666" d="M-156.945-108.618c-0.767-0.383-1.668-0.255-2.314,0.316l-12.503,11.046l-9.965-0.041h-0.008
		c-0.574,0-1.127,0.24-1.532,0.668c-0.413,0.433-0.643,1.022-0.643,1.635l-0.045,18.46c0,0.616,0.229,1.202,0.635,1.634
		c0.405,0.439,0.962,0.681,1.54,0.681h10.081l12.439,11.005c0.398,0.353,0.895,0.533,1.391,0.533c0.315,0,0.631-0.075,0.924-0.218
		c0.762-0.38,1.25-1.194,1.25-2.089v-41.541C-155.695-107.422-156.184-108.234-156.945-108.618L-156.945-108.618L-156.945-108.618
		L-156.945-108.618z M-148.518-97.079c-1.074-0.541-2.347-0.049-2.869,1.082c-0.519,1.138-0.067,2.513,0.991,3.079
		c0.144,0.075,3.396,1.871,3.396,6.99c0,5.465-3.042,7.275-3.144,7.336c-1.074,0.57-1.51,1.957-0.973,3.095
		c0.383,0.812,1.149,1.277,1.945,1.277c0.331,0,0.661-0.075,0.97-0.241c0.229-0.12,5.551-3.046,5.551-11.467
		C-142.65-94.055-148.28-96.958-148.518-97.079L-148.518-97.079L-148.518-97.079L-148.518-97.079z M-141.749-103.854
		c-1.003-0.684-2.332-0.376-2.989,0.688c-0.65,1.063-0.364,2.489,0.631,3.188c0.236,0.165,5.807,4.191,5.807,14.22
		c0,10.052-5.345,14.081-5.559,14.235c-0.999,0.706-1.266,2.138-0.602,3.2c0.421,0.665,1.108,1.029,1.811,1.029
		c0.413,0,0.834-0.128,1.206-0.391c0.304-0.218,7.489-5.446,7.489-18.074C-133.955-98.416-141.434-103.641-141.749-103.854
		L-141.749-103.854L-141.749-103.854L-141.749-103.854z"/>
</g>
<path fill="#666666" d="M-421.173-112.681c0.744,0,1.493,0.284,2.091,0.854l23.281,22.154c0.594,0.569,0.895,1.281,0.895,1.993
	c0,0.708-0.301,1.416-0.895,1.985l-23.281,22.162c-1.196,1.135-2.985,1.135-4.178,0c-1.196-1.139-1.196-2.844,0-3.979l21.039-20.169
	l-21.039-20.03c-1.196-1.135-1.196-2.84,0-3.979C-422.667-112.396-421.917-112.681-421.173-112.681L-421.173-112.681z"/>
<g>
	<path fill="#666666" d="M-470.911-66.289L-491.499-90.7l20.588-25.589V-66.289z"/>
</g>
<g>
	<path fill="#666666" d="M-307.534-78.065h-50v-19.23h50l-8.283,9.787L-307.534-78.065z"/>
</g>
<g>
	<g>
		<g>
			<path fill="#666666" d="M-64.073-94.004h-11.249l3.557-3.591c0.605-0.618,0.605-1.606,0-2.224c-0.61-0.61-1.589-0.61-2.199,0
				l-6.201,6.277c-0.605,0.613-0.605,1.606,0,2.216l6.201,6.276c0.308,0.303,0.705,0.454,1.104,0.454
				c0.393,0,0.791-0.151,1.096-0.454c0.605-0.617,0.605-1.605,0-2.224l-3.557-3.591h11.249c0.857,0,1.551-0.701,1.551-1.57
				C-62.522-93.303-63.215-94.004-64.073-94.004z M-72.854-72.289c-0.342-0.054-0.666-0.083-0.969-0.083
				c-1.387,0-2.212,0.571-3.086,1.172c-0.674,0.472-1.44,1.006-2.419,1.219c-1.038,0.231-2.054,0.271-2.923,0.114l-0.117-0.026
				c-5.98-1.185-11.688-9.473-10.712-15.557c0.2-1.239,0.669-2.104,1.143-2.851c0.532-0.845,1.281-1.382,1.943-1.855l0.021-0.015
				c1.079-0.776,2.012-1.446,2.409-3.418c0.574-3.557-3.827-9.03-4.716-10.092c-1.123-1.338-2.256-1.956-3.477-1.89
				c-1.39,0.076-3.688,1.116-6.758,5.656c-1.045,1.538-1.753,3.438-2.109,5.642c-2.803,17.416,9.302,34.996,26.43,38.387
				l0.286,0.052c0.925,0.171,1.85,0.259,2.743,0.259c1.035,0,2.024-0.117,2.942-0.35c5.272-1.328,7.035-3.149,7.587-4.443
				c0.483-1.128,0.303-2.422-0.547-3.955C-66.133-66.021-69.495-71.625-72.854-72.289z M-67.244-61.501
				c-0.007,0.015-0.681,1.533-5.671,2.796c-1.323,0.329-2.861,0.349-4.5,0.056l-0.241-0.049
				c-15.395-3.044-26.688-19.452-24.169-35.108c0.281-1.777,0.838-3.289,1.653-4.492c2.932-4.335,4.543-4.406,4.558-4.406
				c0.22,0,0.515,0.107,1.172,0.881c1.86,2.212,4.355,6.069,4.092,7.722c-0.164,0.801-0.327,0.918-1.245,1.575l-0.02,0.015
				c-0.794,0.571-1.88,1.352-2.713,2.661c-0.61,0.965-1.271,2.188-1.553,3.94c-1.213,7.517,5.574,17.372,12.966,18.832l0.151,0.032
				c0.54,0.1,1.099,0.148,1.658,0.148c1.027,0,1.853-0.163,2.38-0.283c1.514-0.334,2.612-1.091,3.415-1.646
				c0.713-0.495,0.979-0.681,1.46-0.681c0.132,0,0.293,0.015,0.503,0.046c1.595,0.315,4.285,4.021,5.688,6.55
				C-67.136-61.972-67.192-61.613-67.244-61.501z"/>
		</g>
	</g>
</g>
</svg>
