<?xml version="1.0" encoding="utf-8"?>
<!-- Generator: Adobe Illustrator 16.0.0, SVG Export Plug-In . SVG Version: 6.00 Build 0)  -->
<!DOCTYPE svg PUBLIC "-//W3C//DTD SVG 1.1//EN" "http://www.w3.org/Graphics/SVG/1.1/DTD/svg11.dtd">
<svg version="1.1" id="图层_1" xmlns="http://www.w3.org/2000/svg" xmlns:xlink="http://www.w3.org/1999/xlink" x="0px" y="0px"
	 width="50px" height="50px" viewBox="0 0 50 50" enable-background="new 0 0 50 50" xml:space="preserve">
<g>
	<path fill="#666666" d="M32.4,39.688c0.47,0.184,0.945,0.264,1.432,0.293l-1.669,2.377c-0.254,0.338-0.56,0.568-0.923,0.414
		c-0.363-0.139-0.469-0.444-0.41-0.941l0.343-2.923C31.537,39.224,31.934,39.499,32.4,39.688L32.4,39.688z M6.349,4.3
		c-1.696,0-3.288,0.688-4.488,1.92C0.661,7.457,0,9.102,0,10.847v31.494c0,1.745,0.66,3.393,1.859,4.631
		c1.2,1.235,2.792,1.916,4.488,1.916h36.995c0.812,0,1.476-0.685,1.476-1.523c0-0.838-0.664-1.522-1.476-1.522H7.025
		c-1.09,0-2.11-0.436-2.883-1.229c-0.769-0.792-1.191-1.851-1.191-2.974c0-35.851,0-14.521,0-30.09c0-1.125,0.426-2.18,1.195-2.973
		s1.789-1.231,2.879-1.231c9.873,0,19.74,0.005,29.611,0.005c0.811,0,1.475-0.688,1.475-1.525c0-0.837-0.664-1.522-1.475-1.522
		C26.538,4.3,16.445,4.3,6.349,4.3L6.349,4.3z M9.863,18.133c-0.824,0-1.484-0.68-1.484-1.541c0-0.837,0.66-1.529,1.484-1.529h8.295
		c0.812,0,1.484,0.692,1.484,1.529c0,0.861-0.673,1.541-1.484,1.541H9.863z M9.863,35.058L9.863,35.058h14.23
		c0.823,0,1.484,0.691,1.484,1.543c0,0.848-0.662,1.526-1.484,1.526H9.863c-0.824,0-1.484-0.68-1.484-1.526
		C8.379,35.749,9.044,35.058,9.863,35.058L9.863,35.058z M28.8,26.603L28.8,26.603c0,0.851-0.661,1.529-1.483,1.529H9.863
		c-0.824,0-1.484-0.68-1.484-1.529c0-0.849,0.66-1.543,1.484-1.543h17.453C28.139,25.058,28.8,25.753,28.8,26.603L28.8,26.603z
		 M42.156,3.786c0.808-2.154,3.164-3.224,5.248-2.392c2.099,0.835,3.127,3.267,2.32,5.415l-5.654,15l-7.568-3.029L42.156,3.786z
		 M41.667,16.648L41.667,16.648c0.515,0.206,1.101-0.038,1.288-0.549l3.906-10.38c0.191-0.521-0.065-1.1-0.59-1.307
		c-0.514-0.206-1.094,0.038-1.295,0.549l-3.906,10.38C40.878,15.855,41.146,16.433,41.667,16.648L41.667,16.648z M33.301,38.822
		c-0.975-0.394-1.709-1.183-2.09-2.085c-0.352-0.817-0.4-1.689-0.126-2.418l5.199-13.769l6.796,2.724l-5.053,13.406
		c-0.363,0.969-1.07,1.688-1.928,2.072C35.244,39.144,34.24,39.197,33.301,38.822L33.301,38.822z"/>
</g>
</svg>
