<?xml version="1.0" encoding="utf-8"?>
<!-- Generator: Adobe Illustrator 17.0.0, SVG Export Plug-In . SVG Version: 6.00 Build 0)  -->
<!DOCTYPE svg PUBLIC "-//W3C//DTD SVG 1.1//EN" "http://www.w3.org/Graphics/SVG/1.1/DTD/svg11.dtd">
<svg version="1.1" id="图层_1" xmlns="http://www.w3.org/2000/svg" xmlns:xlink="http://www.w3.org/1999/xlink" x="0px" y="0px"
	 width="50px" height="50px" viewBox="0 0 50 50" enable-background="new 0 0 50 50" xml:space="preserve">
<g>
	<g>
		<path fill="#666666" d="M25,29.959c1.059,0,2.303-1.482,2.303-2.578V15.476c0-1.096-1.243-2.381-2.303-2.381
			s-2.303,1.285-2.303,2.381v11.905C22.697,28.477,23.94,29.959,25,29.959z M25,0C12.282,0,0.82,11.851,0.82,25S12.282,50,25,50
			s24.18-11.85,24.18-25S37.718,0,25,0z M25,46.009c-11.222,0-20.32-9.406-20.32-21.008S13.778,3.993,25,3.993
			c11.222,0,20.319,9.406,20.319,21.008S36.222,46.009,25,46.009z M25.042,32.131c-1.276,0-2.31,1.066-2.31,2.38
			c0,1.315,1.034,2.38,2.31,2.38c1.275,0,2.309-1.066,2.309-2.38C27.351,33.196,26.317,32.131,25.042,32.131z"/>
	</g>
</g>
</svg>
