<?xml version="1.0" encoding="utf-8"?>
<!-- Generator: Adobe Illustrator 16.0.0, SVG Export Plug-In . SVG Version: 6.00 Build 0)  -->
<!DOCTYPE svg PUBLIC "-//W3C//DTD SVG 1.1//EN" "http://www.w3.org/Graphics/SVG/1.1/DTD/svg11.dtd">
<svg version="1.1" id="图层_1" xmlns="http://www.w3.org/2000/svg" xmlns:xlink="http://www.w3.org/1999/xlink" x="0px" y="0px"
	 width="50px" height="50px" viewBox="0 0 50 50" enable-background="new 0 0 50 50" xml:space="preserve">
<path fill="#666666" d="M42.688,7.319C37.966,2.6,31.687,0,25.006,0c-6.68,0-12.958,2.6-17.68,7.32
	C2.603,12.042,0.002,18.321,0.002,25C0.001,31.68,2.6,37.957,7.324,42.68C12.043,47.4,18.323,50,25.001,50
	c6.68,0,12.961-2.604,17.686-7.324C52.434,32.93,52.436,17.07,42.688,7.319L42.688,7.319L42.688,7.319L42.688,7.319z M40.383,40.371
	c-4.106,4.109-9.57,6.371-15.381,6.371c-5.809,0-11.269-2.26-15.375-6.367C5.52,36.271,3.259,30.811,3.261,25
	c0-5.81,2.262-11.271,6.367-15.376c4.108-4.105,9.568-6.366,15.378-6.366c5.808,0,11.27,2.261,15.376,6.366
	C48.861,18.101,48.861,31.896,40.383,40.371L40.383,40.371L40.383,40.371L40.383,40.371z M35.81,31.127l-8.643-5V12.5
	c0-1.15-0.935-2.084-2.083-2.084C23.933,10.416,23,11.35,23,12.5v13.842c-0.028,1.572,0.887,2.172,2,2.861l9.119,5.531
	c0.996,0.572,2.075,0.23,2.651-0.762C37.346,32.973,36.809,31.701,35.81,31.127L35.81,31.127L35.81,31.127L35.81,31.127z
	 M35.81,31.127"/>
</svg>
