<?xml version="1.0" encoding="utf-8"?>
<!-- Generator: Adobe Illustrator 17.0.0, SVG Export Plug-In . SVG Version: 6.00 Build 0)  -->
<!DOCTYPE svg PUBLIC "-//W3C//DTD SVG 1.1//EN" "http://www.w3.org/Graphics/SVG/1.1/DTD/svg11.dtd">
<svg version="1.1" id="图层_1" xmlns="http://www.w3.org/2000/svg" xmlns:xlink="http://www.w3.org/1999/xlink" x="0px" y="0px"
	 width="50px" height="50px" viewBox="0 0 50 50" enable-background="new 0 0 50 50" xml:space="preserve">
<path fill="#666666" d="M44.181,19.697C44.181,9.656,34.779,0,25,0C15.221,0,5.819,9.656,5.819,19.697
	c0,7.334,4.87,14.465,10.961,17.34v9.259c0,1.673,2.164,3.703,3.794,3.703h8.853c1.63,0,3.794-2.03,3.794-3.703v-5.556l0,0v-3.704
	C39.311,34.162,44.181,27.031,44.181,19.697z M29.567,44.445c0,0.837-1.012,1.852-1.827,1.852h-5.48
	c-0.815,0-1.827-1.015-1.827-1.852v-1.852c0-0.837,1.012-1.852,1.827-1.852h5.48c0.815,0,1.686,0.846,1.686,1.683L29.567,44.445z
	 M29.427,34.153l0.141,2.884h-9.134l0.14-2.884c-5.986-1.931-10.328-7.672-10.328-14.456c0-8.368,6.606-15.151,14.755-15.151
	c8.149,0,14.755,6.783,14.755,15.151C39.755,26.481,35.413,32.222,29.427,34.153z"/>
</svg>
