<?xml version="1.0" encoding="utf-8"?>
<!-- Generator: Adobe Illustrator 16.0.0, SVG Export Plug-In . SVG Version: 6.00 Build 0)  -->
<!DOCTYPE svg PUBLIC "-//W3C//DTD SVG 1.1//EN" "http://www.w3.org/Graphics/SVG/1.1/DTD/svg11.dtd">
<svg version="1.1" id="图层_1" xmlns="http://www.w3.org/2000/svg" xmlns:xlink="http://www.w3.org/1999/xlink" x="0px" y="0px"
	 width="50px" height="50px" viewBox="0 0 50 50" enable-background="new 0 0 50 50" xml:space="preserve">
<g>
	<path fill="#666666" d="M7.937,6.757h34.125c2.185,0,4.172,0.887,5.607,2.317c1.438,1.429,2.33,3.405,2.33,5.578v20.695
		c0,2.176-0.893,4.146-2.33,5.578c-1.438,1.43-3.424,2.316-5.607,2.316H7.937c-2.183,0-4.17-0.887-5.607-2.316S0,37.523,0,35.348
		V14.652c0-2.173,0.893-4.149,2.329-5.578C3.767,7.645,5.754,6.757,7.937,6.757L7.937,6.757z M34.895,24.875l11.961,11.631
		c0.095-0.373,0.142-0.762,0.142-1.158V14.652c0-0.546-0.09-1.071-0.257-1.563L34.895,24.875z M45.236,39.094L32.777,26.982
		l-0.625,0.619v-0.004c-0.026,0.025-0.053,0.049-0.082,0.072c-2.398,2.07-4.729,3.129-7.092,3.141
		c-2.355,0.014-4.621-1.012-6.898-3.107c-0.035-0.025-0.065-0.057-0.096-0.084l-0.741-0.705l-12.6,12.078
		c0.875,0.785,2.033,1.264,3.294,1.264h34.125C43.27,40.256,44.38,39.82,45.236,39.094L45.236,39.094z M3.102,36.33l11.975-11.481
		L3.145,13.483c-0.09,0.375-0.141,0.768-0.141,1.169v20.695C3.004,35.684,3.038,36.014,3.102,36.33L3.102,36.33z M4.767,10.9
		l15.295,14.571c0.018,0.017,0.034,0.034,0.052,0.054c1.694,1.561,3.29,2.32,4.853,2.311c1.578-0.014,3.248-0.803,5.067-2.348l0,0
		L44.93,10.666c-0.811-0.58-1.802-0.922-2.865-0.922H7.937C6.731,9.745,5.624,10.18,4.767,10.9L4.767,10.9z"/>
</g>
</svg>
