<?xml version="1.0" encoding="utf-8"?>
<!-- Generator: Adobe Illustrator 16.0.0, SVG Export Plug-In . SVG Version: 6.00 Build 0)  -->
<!DOCTYPE svg PUBLIC "-//W3C//DTD SVG 1.1//EN" "http://www.w3.org/Graphics/SVG/1.1/DTD/svg11.dtd">
<svg version="1.1" id="图层_1" xmlns="http://www.w3.org/2000/svg" xmlns:xlink="http://www.w3.org/1999/xlink" x="0px" y="0px"
	 width="50px" height="50px" viewBox="0 0 50 50" enable-background="new 0 0 50 50" xml:space="preserve">
<g>
	<g>
		<path fill="#666666" d="M21.627,8.739H24v2.289c0,0.478,0.402,0.863,0.896,0.863c0.493,0,0.896-0.386,0.896-0.863V8.739h2.378
			c0.494,0,0.894-0.386,0.894-0.862c0-0.477-0.399-0.864-0.894-0.864h-2.378V4.722c0-0.477-0.399-0.863-0.894-0.863
			C24.402,3.859,24,4.245,24,4.722v2.291h-2.373c-0.496,0-0.896,0.385-0.896,0.861C20.729,8.351,21.131,8.739,21.627,8.739z
			 M11.658,18.095c0.071,7.836,5.714,13.827,13.761,13.42c6.635-0.34,12.913-5.148,12.873-13.42c0-1.238-0.172-2.434-0.465-3.58
			c0.551-0.701,0.775-1.613,0.597-2.532l-1.7-8.681C36.362,1.451,34.547,0,32.588,0H17.362c-1.956,0-3.774,1.451-4.138,3.302
			l-1.695,8.681c-0.182,0.919,0.044,1.831,0.594,2.532C11.832,15.662,11.658,16.857,11.658,18.095z M14.549,15.727
			c0.076,0.005,0.145,0.024,0.221,0.024h20.409c0.077,0,0.149-0.02,0.224-0.024C39.005,33.863,10.948,33.842,14.549,15.727z
			 M13.967,12.425l1.697-8.681c0.143-0.721,0.934-1.352,1.709-1.352c5.11,0.047,10.091,0.047,15.203,0
			c0.775,0,1.568,0.63,1.709,1.352l1.697,8.681c0.052,0.27,0,0.508-0.138,0.675c-0.144,0.169-0.382,0.259-0.666,0.259H14.77
			c-0.283,0-0.518-0.09-0.662-0.259C13.966,12.933,13.917,12.695,13.967,12.425z M43.922,35.484c-0.586-3.729-3.43-6.91-7.307-8.135
			c-2.663,3.449-6.839,5.4-11.156,5.619c-5.238,0.27-9.546-1.951-12.188-5.6c-4.33,1.395-7.355,5.23-7.355,9.539v2.979
			C5.916,45.789,11.104,50,17.047,50H33.1c5.5,0,10.063-3.773,10.822-8.668C44.14,39.404,44.137,37.455,43.922,35.484z"/>
	</g>
</g>
</svg>
