<?xml version="1.0" encoding="utf-8"?>
<!-- Generator: Adobe Illustrator 16.0.0, SVG Export Plug-In . SVG Version: 6.00 Build 0)  -->
<!DOCTYPE svg PUBLIC "-//W3C//DTD SVG 1.1//EN" "http://www.w3.org/Graphics/SVG/1.1/DTD/svg11.dtd">
<svg version="1.1" id="图层_1" xmlns="http://www.w3.org/2000/svg" xmlns:xlink="http://www.w3.org/1999/xlink" x="0px" y="0px"
	 width="50px" height="50px" viewBox="0 0 50 50" enable-background="new 0 0 50 50" xml:space="preserve">
<g>
	<g>
		<path fill="#666666" d="M25,0C11.191,0,0,11.192,0,25c0,13.809,11.191,25,25,25c13.807,0,25-11.193,25-25C50,11.192,38.807,0,25,0
			z M40.498,40.498c-2.014,2.012-4.357,3.594-6.968,4.697c-2.7,1.143-5.571,1.721-8.53,1.721c-2.961,0-5.83-0.578-8.53-1.721
			c-2.61-1.104-4.954-2.686-6.968-4.697c-2.014-2.014-3.594-4.357-4.697-6.968c-1.143-2.7-1.721-5.571-1.721-8.53
			c0-2.96,0.579-5.83,1.721-8.53c1.104-2.61,2.683-4.954,4.697-6.968s4.358-3.595,6.968-4.698c2.7-1.142,5.569-1.722,8.53-1.722
			c2.959,0,5.83,0.58,8.53,1.722c2.61,1.104,4.954,2.685,6.968,4.698s3.594,4.357,4.697,6.968c1.143,2.7,1.721,5.57,1.721,8.53
			c0,2.959-0.578,5.83-1.721,8.53C44.092,36.141,42.512,38.484,40.498,40.498z M34.009,12.495h-4.492
			c-1.919,0-3.479,1.56-3.479,3.478v4.492c0,1.918,1.561,3.479,3.479,3.479h4.492c1.917,0,3.477-1.561,3.477-3.479v-4.492
			C37.485,14.055,35.926,12.495,34.009,12.495z M20.483,12.495h-4.492c-1.919,0-3.479,1.56-3.479,3.478v4.492
			c0,1.918,1.56,3.479,3.479,3.479h4.492c1.919,0,3.477-1.561,3.477-3.479v-4.492C23.96,14.055,22.4,12.495,20.483,12.495z
			 M34.009,26.057h-4.492c-1.919,0-3.479,1.561-3.479,3.479v4.492c0,1.917,1.561,3.477,3.479,3.477h4.492
			c1.917,0,3.477-1.56,3.477-3.477v-4.492C37.485,27.617,35.926,26.057,34.009,26.057z M20.483,26.057h-4.492
			c-1.919,0-3.479,1.561-3.479,3.479v4.492c0,1.917,1.56,3.477,3.479,3.477h4.492c1.919,0,3.477-1.56,3.477-3.477v-4.492
			C23.96,27.617,22.4,26.057,20.483,26.057z"/>
	</g>
</g>
</svg>
