<?xml version="1.0" encoding="utf-8"?>
<!-- Generator: Adobe Illustrator 17.0.0, SVG Export Plug-In . SVG Version: 6.00 Build 0)  -->
<!DOCTYPE svg PUBLIC "-//W3C//DTD SVG 1.1//EN" "http://www.w3.org/Graphics/SVG/1.1/DTD/svg11.dtd">
<svg version="1.1" id="图层_1" xmlns="http://www.w3.org/2000/svg" xmlns:xlink="http://www.w3.org/1999/xlink" x="0px" y="0px"
	 width="50px" height="50px" viewBox="0 0 50 50" enable-background="new 0 0 50 50" xml:space="preserve">
<g>
	<g>
		<path fill-rule="evenodd" clip-rule="evenodd" fill="#666666" d="M44.701,27.463c-1.26-1.235-3.002-2.002-4.929-2.002
			c-1.922,0-3.664,0.767-4.929,2.002c-1.259,1.24-2.041,2.949-2.041,4.833c0,1.889,0.782,3.599,2.041,4.834
			c0.483,0.474,1.031,0.874,1.638,1.191c-0.702,3.837-2.808,6.284-5.312,7.451c-1.2,0.557-2.489,0.83-3.749,0.82
			c-1.25-0.005-2.474-0.283-3.57-0.83c-2.181-1.084-3.829-3.261-4.013-6.459v-7.987c2.828-0.293,5.82-1.577,8.24-3.584
			c2.863-2.378,4.979-5.781,5.153-9.76c0.005-0.02,0.005-0.044,0.005-0.083c0.005-0.063,0.01-0.127,0.01-0.19V4.551H33.24V4.477
			c-0.06-1.372-0.523-2.461-1.314-3.237c-0.837-0.815-1.967-1.23-3.321-1.235V0h-4.436c-0.961,0-1.742,0.767-1.742,1.709
			c0,0.942,0.782,1.709,1.742,1.709h4.436V3.413c0.398,0,0.687,0.083,0.857,0.244c0.169,0.166,0.274,0.464,0.304,0.894H29.76v13.148
			c0,0.024,0,0.054,0.005,0.078l-0.005,0.049c-0.13,2.934-1.743,5.488-3.933,7.299c-2.211,1.836-4.969,2.9-7.364,2.842l-0.135-0.005
			h-0.149l-0.134,0.005c-2.4,0.059-5.158-1.006-7.369-2.842c-2.191-1.811-3.804-4.365-3.933-7.299V4.551
			c0.025-0.43,0.134-0.728,0.303-0.894c0.164-0.161,0.458-0.244,0.852-0.244v0.005h4.436c0.966,0,1.743-0.767,1.743-1.709
			C14.077,0.767,13.3,0,12.334,0H7.898v0.005C6.544,0.01,5.414,0.425,4.582,1.24c-0.792,0.776-1.255,1.865-1.32,3.237v0.073H3.258
			v13.148c0,0.063,0.005,0.127,0.01,0.19c0.005,0.039,0.005,0.063,0.005,0.083c0.179,3.979,2.29,7.382,5.158,9.76
			c2.33,1.933,5.188,3.198,7.921,3.545v7.983c0,0.078,0.005,0.151,0.015,0.225c0.264,4.57,2.688,7.724,5.915,9.325
			c1.573,0.776,3.331,1.181,5.123,1.191c1.778,0.01,3.58-0.366,5.248-1.143c3.395-1.582,6.253-4.789,7.209-9.725
			c1.887-0.025,3.6-0.781,4.839-2.002c1.264-1.235,2.041-2.944,2.041-4.834C46.742,30.412,45.966,28.703,44.701,27.463z
			 M42.237,34.714c-0.627,0.62-1.499,1.001-2.464,1.001c-0.961,0-1.832-0.381-2.465-1.001c-0.627-0.615-1.021-1.475-1.021-2.417
			c0-0.942,0.393-1.797,1.021-2.416c0.632-0.615,1.504-1.001,2.465-1.001c0.966,0,1.837,0.381,2.464,1.001
			c0.632,0.62,1.021,1.474,1.021,2.416C43.257,33.239,42.869,34.098,42.237,34.714z M39.772,31.32c-0.548,0-0.996,0.439-0.996,0.976
			c0,0.537,0.448,0.977,0.996,0.977c0.548,0,0.996-0.439,0.996-0.977C40.768,31.759,40.32,31.32,39.772,31.32z"/>
	</g>
</g>
</svg>
